<svg version="1.1" viewBox="0.0 0.0 960.0 720.0" fill="none" stroke="none" stroke-linecap="square" stroke-miterlimit="10" xmlns:xlink="http://www.w3.org/1999/xlink" xmlns="http://www.w3.org/2000/svg"><clipPath id="p.0"><path d="m0 0l960.0 0l0 720.0l-960.0 0l0 -720.0z" clip-rule="nonzero"/></clipPath><g clip-path="url(#p.0)"><path fill="#000000" fill-opacity="0.0" d="m0 0l960.0 0l0 720.0l-960.0 0z" fill-rule="evenodd"/><path fill="#cfe2f3" d="m324.5538 438.1483l-4.6062927 0l0 -36.275574l0 -1.118103l101.71127 0l0 -2.5013123l120.80313 0l0 -102.83203l-1.9763794 0l0 -5.923889l-45.687622 0l0 -5.13385l84.72705 0l0 5.2650757l-32.4541 0l0 107.76904l77.87927 0l0 -40.091858l4.4750366 0l0 39.960632l12.706055 0l0 6.648285l-20.472412 0l0 30.611542l-73.07611 0l0 -30.083984l4.149597 0l0 25.871399l64.514404 0l0 -26.202118l-149.57217 0l0 1.1863708l-45.62204 0l0 6.5170593l-17.708649 0l0 22.383179l8.952759 0l0 -6.0577393l5.398926 0l0 12.047241l-19.94751 0l0 -28.900238l-12.83725 0l0 -3.8189087l-39.039368 0l0 -1.4461975l-22.580048 0z" fill-rule="evenodd"/><path stroke="#000000" stroke-width="1.0" stroke-linejoin="round" stroke-linecap="butt" d="m324.5538 438.1483l-4.6062927 0l0 -36.275574l0 -1.118103l101.71127 0l0 -2.5013123l120.80313 0l0 -102.83203l-1.9763794 0l0 -5.923889l-45.687622 0l0 -5.13385l84.72705 0l0 5.2650757l-32.4541 0l0 107.76904l77.87927 0l0 -40.091858l4.4750366 0l0 39.960632l12.706055 0l0 6.648285l-20.472412 0l0 30.611542l-73.07611 0l0 -30.083984l4.149597 0l0 25.871399l64.514404 0l0 -26.202118l-149.57217 0l0 1.1863708l-45.62204 0l0 6.5170593l-17.708649 0l0 22.383179l8.952759 0l0 -6.0577393l5.398926 0l0 12.047241l-19.94751 0l0 -28.900238l-12.83725 0l0 -3.8189087l-39.039368 0l0 -1.4461975l-22.580048 0z" fill-rule="evenodd"/><path fill="#000000" fill-opacity="0.0" d="m549.20734 404.20078l3.2440796 0.15750122" fill-rule="evenodd"/><path stroke="#c9daf8" stroke-width="2.0" stroke-linejoin="round" stroke-linecap="butt" d="m549.20734 404.20078l3.2440796 0.15750122" fill-rule="evenodd"/><path fill="#fce5cd" d="m346.71652 407.59973l0 39.404205l-27.364807 0l0 -8.745392l5.658783 0l0 -32.097137l21.811035 0z" fill-rule="evenodd"/><path stroke="#000000" stroke-width="1.0" stroke-linejoin="round" stroke-linecap="butt" d="m346.71652 407.59973l0 39.404205l-27.364807 0l0 -8.745392l5.658783 0l0 -32.097137l21.811035 0z" fill-rule="evenodd"/><path fill="#fce5cd" d="m319.65878 437.8491l-14.813629 0l0 -51.236237l39.299194 0l0 -6.6876526l89.60895 0l0 -1.6456604l108.23096 0l0 19.341187l-120.782166 0l0 2.469818l-101.64566 0z" fill-rule="evenodd"/><path stroke="#000000" stroke-width="1.0" stroke-linejoin="round" stroke-linecap="butt" d="m319.65878 437.8491l-14.813629 0l0 -51.236237l39.299194 0l0 -6.6876526l89.60895 0l0 -1.6456604l108.23096 0l0 19.341187l-120.782166 0l0 2.469818l-101.64566 0z" fill-rule="evenodd"/><path fill="#fce5cd" d="m385.91602 411.5105l0 34.566925l13.065613 0l0 -34.257202z" fill-rule="evenodd"/><path stroke="#000000" stroke-width="1.0" stroke-linejoin="round" stroke-linecap="butt" d="m385.91602 411.5105l0 34.566925l13.065613 0l0 -34.257202z" fill-rule="evenodd"/><path fill="#fce5cd" d="m399.18634 446.2848l0 -6.2756042l19.753296 0l0 -12.448822l-5.8635254 0l0 6.173218l-8.230957 0l0 -21.503937l18.005249 0l0 -6.3779297l35.183716 0l0 6.3779297l8.643036 0l0 30.968506l-28.601044 0l0 2.8792725l-18.107605 0l0 2.3674622l-16.5643 0l0 -2.0577393z" fill-rule="evenodd"/><path stroke="#000000" stroke-width="1.0" stroke-linejoin="round" stroke-linecap="butt" d="m399.18634 446.2848l0 -6.2756042l19.753296 0l0 -12.448822l-5.8635254 0l0 6.173218l-8.230957 0l0 -21.503937l18.005249 0l0 -6.3779297l35.183716 0l0 6.3779297l8.643036 0l0 30.968506l-28.601044 0l0 2.8792725l-18.107605 0l0 2.3674622l-16.5643 0l0 -2.0577393z" fill-rule="evenodd"/><path fill="#b4a7d6" d="m458.4462 405.64697l0 5.9658813l8.538055 0l0 -5.9658813z" fill-rule="evenodd"/><path stroke="#000000" stroke-width="1.0" stroke-linejoin="round" stroke-linecap="butt" d="m458.4462 405.64697l0 5.9658813l8.538055 0l0 -5.9658813z" fill-rule="evenodd"/><path fill="#fce5cd" d="m468.01312 404.51575l0 13.887146l60.905518 0l0 25.824127l20.062988 0l0 -39.816254z" fill-rule="evenodd"/><path stroke="#000000" stroke-width="1.0" stroke-linejoin="round" stroke-linecap="butt" d="m468.01312 404.51575l0 13.887146l60.905518 0l0 25.824127l20.062988 0l0 -39.816254z" fill-rule="evenodd"/><path fill="#fce5cd" d="m549.49603 434.86484l72.53021 0l0 -30.556427l20.67981 0l0 -7.6115723l-12.5512085 0l0 -19.343811l25.0 0l0 66.35956l-105.968506 0z" fill-rule="evenodd"/><path stroke="#000000" stroke-width="1.0" stroke-linejoin="round" stroke-linecap="butt" d="m549.49603 434.86484l72.53021 0l0 -30.556427l20.67981 0l0 -7.6115723l-12.5512085 0l0 -19.343811l25.0 0l0 66.35956l-105.968506 0z" fill-rule="evenodd"/><path fill="#fce5cd" d="m616.6772 404.51575l-63.375366 0l0 25.307098l63.58008 0z" fill-rule="evenodd"/><path stroke="#000000" stroke-width="1.0" stroke-linejoin="round" stroke-linecap="butt" d="m616.6772 404.51575l-63.375366 0l0 25.307098l63.58008 0z" fill-rule="evenodd"/><path fill="#fce5cd" d="m652.5827 376.8386l0 -26.543304l-36.21527 0l0 27.16272l-68.724365 0l0 19.341217l76.85297 0l0 -40.123383l5.7611694 0l0 19.958008z" fill-rule="evenodd"/><path stroke="#000000" stroke-width="1.0" stroke-linejoin="round" stroke-linecap="butt" d="m652.5827 376.8386l0 -26.543304l-36.21527 0l0 27.16272l-68.724365 0l0 19.341217l76.85297 0l0 -40.123383l5.7611694 0l0 19.958008z" fill-rule="evenodd"/><path fill="#fce5cd" d="m547.64307 372.1063l7.7164917 0l0 -59.257202l26.853027 0l3.241455 -3.238861l0 -10.650909l3.1627808 -3.1627197l0 -8.359589l-2.0 -3.4619446l-4.5092163 0l0 -4.254608l-2.467163 -2.467163l-27.984253 0l-1.7821655 -3.0866394l-4.3911133 0l-1.569519 -2.7191467l-4.7060547 0l-1.2886963 2.230957l0 10.362213l42.131226 0l0 6.070862l-32.4068 0z" fill-rule="evenodd"/><path stroke="#000000" stroke-width="1.0" stroke-linejoin="round" stroke-linecap="butt" d="m547.64307 372.1063l7.7164917 0l0 -59.257202l26.853027 0l3.241455 -3.238861l0 -10.650909l3.1627808 -3.1627197l0 -8.359589l-2.0 -3.4619446l-4.5092163 0l0 -4.254608l-2.467163 -2.467163l-27.984253 0l-1.7821655 -3.0866394l-4.3911133 0l-1.569519 -2.7191467l-4.7060547 0l-1.2886963 2.230957l0 10.362213l42.131226 0l0 6.070862l-32.4068 0z" fill-rule="evenodd"/><path fill="#b4a7d6" d="m537.3543 283.73358l-13.989502 0l0 -6.380554l1.8241577 -3.1601257l12.270325 0z" fill-rule="evenodd"/><path stroke="#000000" stroke-width="1.0" stroke-linejoin="round" stroke-linecap="butt" d="m537.3543 283.73358l-13.989502 0l0 -6.380554l1.8241577 -3.1601257l12.270325 0z" fill-rule="evenodd"/><path fill="#fce5cd" d="m522.7454 283.73358l0 -7.3044434l-28.70343 0l-1.7401428 3.015747l0 4.391083l-4.1233826 0l-1.8871155 3.2703247l0 8.97113l2.4855652 4.304474l0 9.275574l2.1810913 3.7769165l28.805786 0l0 58.776886l22.220459 0l0 -76.13385l-1.8504028 0l0 -6.2755737l-45.67978 0l0 -5.8635254z" fill-rule="evenodd"/><path stroke="#000000" stroke-width="1.0" stroke-linejoin="round" stroke-linecap="butt" d="m522.7454 283.73358l0 -7.3044434l-28.70343 0l-1.7401428 3.015747l0 4.391083l-4.1233826 0l-1.8871155 3.2703247l0 8.97113l2.4855652 4.304474l0 9.275574l2.1810913 3.7769165l28.805786 0l0 58.776886l22.220459 0l0 -76.13385l-1.8504028 0l0 -6.2755737l-45.67978 0l0 -5.8635254z" fill-rule="evenodd"/><path fill="#000000" fill-opacity="0.0" d="m324.46982 438.47638l0.12597656 8.787415" fill-rule="evenodd"/><path stroke="#000000" stroke-width="1.0" stroke-linejoin="round" stroke-linecap="butt" d="m324.46982 438.47638l0.12597656 8.787415" fill-rule="evenodd"/><path fill="#000000" fill-opacity="0.0" d="m325.43832 409.74933l20.75589 0" fill-rule="evenodd"/><path stroke="#000000" stroke-width="1.0" stroke-linejoin="round" stroke-linecap="butt" d="m325.43832 409.74933l20.75589 0" fill-rule="evenodd"/><path fill="#000000" fill-opacity="0.0" d="m319.2257 419.1273l-13.606293 0" fill-rule="evenodd"/><path stroke="#000000" stroke-width="1.0" stroke-linejoin="round" stroke-linecap="butt" d="m319.2257 419.1273l-13.606293 0" fill-rule="evenodd"/><path fill="#000000" fill-opacity="0.0" d="m319.2257 410.56824l-13.826752 0" fill-rule="evenodd"/><path stroke="#000000" stroke-width="1.0" stroke-linejoin="round" stroke-linecap="butt" d="m319.2257 410.56824l-13.826752 0" fill-rule="evenodd"/><path fill="#000000" fill-opacity="0.0" d="m319.81104 400.2533l-14.425201 0" fill-rule="evenodd"/><path stroke="#000000" stroke-width="1.0" stroke-linejoin="round" stroke-linecap="butt" d="m319.81104 400.2533l-14.425201 0" fill-rule="evenodd"/><path fill="#000000" fill-opacity="0.0" d="m320.28085 400.13516l0 -13.13385" fill-rule="evenodd"/><path stroke="#000000" stroke-width="1.0" stroke-linejoin="round" stroke-linecap="butt" d="m320.28085 400.13516l0 -13.13385" fill-rule="evenodd"/><path fill="#000000" fill-opacity="0.0" d="m338.56955 400.01968l0 -13.007874" fill-rule="evenodd"/><path stroke="#000000" stroke-width="1.0" stroke-linejoin="round" stroke-linecap="butt" d="m338.56955 400.01968l0 -13.007874" fill-rule="evenodd"/><path fill="#000000" fill-opacity="0.0" d="m344.66666 399.78348l0 -19.118134" fill-rule="evenodd"/><path stroke="#000000" stroke-width="1.0" stroke-linejoin="round" stroke-linecap="butt" d="m344.66666 399.78348l0 -19.118134" fill-rule="evenodd"/><path fill="#000000" fill-opacity="0.0" d="m357.56168 400.2533l0 -20.283478" fill-rule="evenodd"/><path stroke="#000000" stroke-width="1.0" stroke-linejoin="round" stroke-linecap="butt" d="m357.56168 400.2533l0 -20.283478" fill-rule="evenodd"/><path fill="#000000" fill-opacity="0.0" d="m384.99475 400.13516l0 -19.685028" fill-rule="evenodd"/><path stroke="#000000" stroke-width="1.0" stroke-linejoin="round" stroke-linecap="butt" d="m384.99475 400.13516l0 -19.685028" fill-rule="evenodd"/><path fill="#000000" fill-opacity="0.0" d="m403.28348 399.90158l0 -19.937012" fill-rule="evenodd"/><path stroke="#000000" stroke-width="1.0" stroke-linejoin="round" stroke-linecap="butt" d="m403.28348 399.90158l0 -19.937012" fill-rule="evenodd"/><path fill="#000000" fill-opacity="0.0" d="m410.7848 400.01968l0 -19.685028" fill-rule="evenodd"/><path stroke="#000000" stroke-width="1.0" stroke-linejoin="round" stroke-linecap="butt" d="m410.7848 400.01968l0 -19.685028" fill-rule="evenodd"/><path fill="#000000" fill-opacity="0.0" d="m437.28085 397.08792l0 -18.519684" fill-rule="evenodd"/><path stroke="#000000" stroke-width="1.0" stroke-linejoin="round" stroke-linecap="butt" d="m437.28085 397.08792l0 -18.519684" fill-rule="evenodd"/><path fill="#000000" fill-opacity="0.0" d="m449.59055 397.79135l0 -19.590576" fill-rule="evenodd"/><path stroke="#000000" stroke-width="1.0" stroke-linejoin="round" stroke-linecap="butt" d="m449.59055 397.79135l0 -19.590576" fill-rule="evenodd"/><path fill="#000000" fill-opacity="0.0" d="m460.72702 397.55774l0 -19.212585" fill-rule="evenodd"/><path stroke="#000000" stroke-width="1.0" stroke-linejoin="round" stroke-linecap="butt" d="m460.72702 397.55774l0 -19.212585" fill-rule="evenodd"/><path fill="#000000" fill-opacity="0.0" d="m492.14435 397.90945l0 -19.46457" fill-rule="evenodd"/><path stroke="#000000" stroke-width="1.0" stroke-linejoin="round" stroke-linecap="butt" d="m492.14435 397.90945l0 -19.46457" fill-rule="evenodd"/><path fill="#000000" fill-opacity="0.0" d="m504.45407 397.55774l0 -18.86615" fill-rule="evenodd"/><path stroke="#000000" stroke-width="1.0" stroke-linejoin="round" stroke-linecap="butt" d="m504.45407 397.55774l0 -18.86615" fill-rule="evenodd"/><path fill="#000000" fill-opacity="0.0" d="m517.2336 397.90945l0 -5.0393677" fill-rule="evenodd"/><path stroke="#000000" stroke-width="1.0" stroke-linejoin="round" stroke-linecap="butt" d="m517.2336 397.90945l0 -5.0393677" fill-rule="evenodd"/><path fill="#000000" fill-opacity="0.0" d="m517.5853 392.86746l24.629883 0" fill-rule="evenodd"/><path stroke="#000000" stroke-width="1.0" stroke-linejoin="round" stroke-linecap="butt" d="m517.5853 392.86746l24.629883 0" fill-rule="evenodd"/><path fill="#000000" fill-opacity="0.0" d="m398.82678 432.96194l-12.787415 0" fill-rule="evenodd"/><path stroke="#000000" stroke-width="1.0" stroke-linejoin="round" stroke-linecap="butt" d="m398.82678 432.96194l-12.787415 0" fill-rule="evenodd"/><path fill="#000000" fill-opacity="0.0" d="m410.9029 440.46326l0 7.62204" fill-rule="evenodd"/><path stroke="#000000" stroke-width="1.0" stroke-linejoin="round" stroke-linecap="butt" d="m410.9029 440.46326l0 7.62204" fill-rule="evenodd"/><path fill="#000000" fill-opacity="0.0" d="m418.87402 440.11154l0 8.4409485" fill-rule="evenodd"/><path stroke="#000000" stroke-width="1.0" stroke-linejoin="round" stroke-linecap="butt" d="m418.87402 440.11154l0 8.4409485" fill-rule="evenodd"/><path fill="#000000" fill-opacity="0.0" d="m412.89502 428.85696l-7.968506 0" fill-rule="evenodd"/><path stroke="#000000" stroke-width="1.0" stroke-linejoin="round" stroke-linecap="butt" d="m412.89502 428.85696l-7.968506 0" fill-rule="evenodd"/><path fill="#000000" fill-opacity="0.0" d="m410.7848 412.4449l0 16.188965" fill-rule="evenodd"/><path stroke="#000000" stroke-width="1.0" stroke-linejoin="round" stroke-linecap="butt" d="m410.7848 412.4449l0 16.188965" fill-rule="evenodd"/><path fill="#000000" fill-opacity="0.0" d="m418.6404 427.45013l0 -14.992126" fill-rule="evenodd"/><path stroke="#000000" stroke-width="1.0" stroke-linejoin="round" stroke-linecap="butt" d="m418.6404 427.45013l0 -14.992126" fill-rule="evenodd"/><path fill="#000000" fill-opacity="0.0" d="m423.3281 411.74146l34.362183 0" fill-rule="evenodd"/><path stroke="#000000" stroke-width="1.0" stroke-linejoin="round" stroke-linecap="butt" d="m423.3281 411.74146l34.362183 0" fill-rule="evenodd"/><path fill="#000000" fill-opacity="0.0" d="m427.43307 405.88058l0 5.637787" fill-rule="evenodd"/><path stroke="#000000" stroke-width="1.0" stroke-linejoin="round" stroke-linecap="butt" d="m427.43307 405.88058l0 5.637787" fill-rule="evenodd"/><path fill="#000000" fill-opacity="0.0" d="m437.98425 405.88058l0 5.637787" fill-rule="evenodd"/><path stroke="#000000" stroke-width="1.0" stroke-linejoin="round" stroke-linecap="butt" d="m437.98425 405.88058l0 5.637787" fill-rule="evenodd"/><path fill="#000000" fill-opacity="0.0" d="m445.83728 405.88058l0 5.5118103" fill-rule="evenodd"/><path stroke="#000000" stroke-width="1.0" stroke-linejoin="round" stroke-linecap="butt" d="m445.83728 405.88058l0 5.5118103" fill-rule="evenodd"/><path fill="#000000" fill-opacity="0.0" d="m451.23096 406.11417l0 5.3858337" fill-rule="evenodd"/><path stroke="#000000" stroke-width="1.0" stroke-linejoin="round" stroke-linecap="butt" d="m451.23096 406.11417l0 5.3858337" fill-rule="evenodd"/><path fill="#000000" fill-opacity="0.0" d="m454.74802 405.9987l0 5.5118103" fill-rule="evenodd"/><path stroke="#000000" stroke-width="1.0" stroke-linejoin="round" stroke-linecap="butt" d="m454.74802 405.9987l0 5.5118103" fill-rule="evenodd"/><path fill="#000000" fill-opacity="0.0" d="m437.86615 411.74146l0 31.527588" fill-rule="evenodd"/><path stroke="#000000" stroke-width="1.0" stroke-linejoin="round" stroke-linecap="butt" d="m437.86615 411.74146l0 31.527588" fill-rule="evenodd"/><path fill="#000000" fill-opacity="0.0" d="m479.60104 404.47375l0 13.732269" fill-rule="evenodd"/><path stroke="#000000" stroke-width="1.0" stroke-linejoin="round" stroke-linecap="butt" d="m479.60104 404.47375l0 13.732269" fill-rule="evenodd"/><path fill="#000000" fill-opacity="0.0" d="m486.28348 404.70734l0 13.7323" fill-rule="evenodd"/><path stroke="#000000" stroke-width="1.0" stroke-linejoin="round" stroke-linecap="butt" d="m486.28348 404.70734l0 13.7323" fill-rule="evenodd"/><path fill="#000000" fill-opacity="0.0" d="m511.13647 404.70734l0 13.606323" fill-rule="evenodd"/><path stroke="#000000" stroke-width="1.0" stroke-linejoin="round" stroke-linecap="butt" d="m511.13647 404.70734l0 13.606323" fill-rule="evenodd"/><path fill="#000000" fill-opacity="0.0" d="m518.4042 404.47375l0 13.952759" fill-rule="evenodd"/><path stroke="#000000" stroke-width="1.0" stroke-linejoin="round" stroke-linecap="butt" d="m518.4042 404.47375l0 13.952759" fill-rule="evenodd"/><path fill="#000000" fill-opacity="0.0" d="m529.1916 404.59186l0 13.606293" fill-rule="evenodd"/><path stroke="#000000" stroke-width="1.0" stroke-linejoin="round" stroke-linecap="butt" d="m529.1916 404.59186l0 13.606293" fill-rule="evenodd"/><path fill="#000000" fill-opacity="0.0" d="m529.4252 417.8386l19.212646 0" fill-rule="evenodd"/><path stroke="#000000" stroke-width="1.0" stroke-linejoin="round" stroke-linecap="butt" d="m529.4252 417.8386l19.212646 0" fill-rule="evenodd"/><path fill="#000000" fill-opacity="0.0" d="m549.1207 430.03018l-19.937012 0" fill-rule="evenodd"/><path stroke="#000000" stroke-width="1.0" stroke-linejoin="round" stroke-linecap="butt" d="m549.1207 430.03018l-19.937012 0" fill-rule="evenodd"/><path fill="#000000" fill-opacity="0.0" d="m535.9895 404.35565l0 13.480316" fill-rule="evenodd"/><path stroke="#000000" stroke-width="1.0" stroke-linejoin="round" stroke-linecap="butt" d="m535.9895 404.35565l0 13.480316" fill-rule="evenodd"/><path fill="#000000" fill-opacity="0.0" d="m511.4882 409.86746l-25.070862 0" fill-rule="evenodd"/><path stroke="#000000" stroke-width="1.0" stroke-linejoin="round" stroke-linecap="butt" d="m511.4882 409.86746l-25.070862 0" fill-rule="evenodd"/><path fill="#000000" fill-opacity="0.0" d="m496.01312 404.59186l0 5.0393677" fill-rule="evenodd"/><path stroke="#000000" stroke-width="1.0" stroke-linejoin="round" stroke-linecap="butt" d="m496.01312 404.59186l0 5.0393677" fill-rule="evenodd"/><path fill="#000000" fill-opacity="0.0" d="m501.52493 404.70734l0 5.1653748" fill-rule="evenodd"/><path stroke="#000000" stroke-width="1.0" stroke-linejoin="round" stroke-linecap="butt" d="m501.52493 404.70734l0 5.1653748" fill-rule="evenodd"/><path fill="#000000" fill-opacity="0.0" d="m555.09973 434.95407l0 8.566925" fill-rule="evenodd"/><path stroke="#000000" stroke-width="1.0" stroke-linejoin="round" stroke-linecap="butt" d="m555.09973 434.95407l0 8.566925" fill-rule="evenodd"/><path fill="#000000" fill-opacity="0.0" d="m561.07874 435.07217l0 8.4409485" fill-rule="evenodd"/><path stroke="#000000" stroke-width="1.0" stroke-linejoin="round" stroke-linecap="butt" d="m561.07874 435.07217l0 8.4409485" fill-rule="evenodd"/><path fill="#000000" fill-opacity="0.0" d="m567.76117 434.95407l0 8.4409485" fill-rule="evenodd"/><path stroke="#000000" stroke-width="1.0" stroke-linejoin="round" stroke-linecap="butt" d="m567.76117 434.95407l0 8.4409485" fill-rule="evenodd"/><path fill="#000000" fill-opacity="0.0" d="m573.97375 434.83597l0 8.566925" fill-rule="evenodd"/><path stroke="#000000" stroke-width="1.0" stroke-linejoin="round" stroke-linecap="butt" d="m573.97375 434.83597l0 8.566925" fill-rule="evenodd"/><path fill="#000000" fill-opacity="0.0" d="m580.07086 435.07217l0 8.4409485" fill-rule="evenodd"/><path stroke="#000000" stroke-width="1.0" stroke-linejoin="round" stroke-linecap="butt" d="m580.07086 435.07217l0 8.4409485" fill-rule="evenodd"/><path fill="#000000" fill-opacity="0.0" d="m586.40155 434.83597l0 8.4409485" fill-rule="evenodd"/><path stroke="#000000" stroke-width="1.0" stroke-linejoin="round" stroke-linecap="butt" d="m586.40155 434.83597l0 8.4409485" fill-rule="evenodd"/><path fill="#000000" fill-opacity="0.0" d="m592.7323 435.07217l0 8.4409485" fill-rule="evenodd"/><path stroke="#000000" stroke-width="1.0" stroke-linejoin="round" stroke-linecap="butt" d="m592.7323 435.07217l0 8.4409485" fill-rule="evenodd"/><path fill="#000000" fill-opacity="0.0" d="m598.7113 435.3058l0 8.220459" fill-rule="evenodd"/><path stroke="#000000" stroke-width="1.0" stroke-linejoin="round" stroke-linecap="butt" d="m598.7113 435.3058l0 8.220459" fill-rule="evenodd"/><path fill="#000000" fill-opacity="0.0" d="m604.8058 434.95407l0 8.661407" fill-rule="evenodd"/><path stroke="#000000" stroke-width="1.0" stroke-linejoin="round" stroke-linecap="butt" d="m604.8058 434.95407l0 8.661407" fill-rule="evenodd"/><path fill="#000000" fill-opacity="0.0" d="m611.3727 434.95407l0 8.661407" fill-rule="evenodd"/><path stroke="#000000" stroke-width="1.0" stroke-linejoin="round" stroke-linecap="butt" d="m611.3727 434.95407l0 8.661407" fill-rule="evenodd"/><path fill="#000000" fill-opacity="0.0" d="m617.5853 434.95407l0 8.787384" fill-rule="evenodd"/><path stroke="#000000" stroke-width="1.0" stroke-linejoin="round" stroke-linecap="butt" d="m617.5853 434.95407l0 8.787384" fill-rule="evenodd"/><path fill="#000000" fill-opacity="0.0" d="m621.92126 435.18765l8.566895 0" fill-rule="evenodd"/><path stroke="#000000" stroke-width="1.0" stroke-linejoin="round" stroke-linecap="butt" d="m621.92126 435.18765l8.566895 0" fill-rule="evenodd"/><path fill="#000000" fill-opacity="0.0" d="m630.3622 443.86484l0 -26.960632" fill-rule="evenodd"/><path stroke="#000000" stroke-width="1.0" stroke-linejoin="round" stroke-linecap="butt" d="m630.3622 443.86484l0 -26.960632" fill-rule="evenodd"/><path fill="#000000" fill-opacity="0.0" d="m630.3622 417.01706l24.724426 0" fill-rule="evenodd"/><path stroke="#000000" stroke-width="1.0" stroke-linejoin="round" stroke-linecap="butt" d="m630.3622 417.01706l24.724426 0" fill-rule="evenodd"/><path fill="#000000" fill-opacity="0.0" d="m630.4803 430.1483l-8.314941 0" fill-rule="evenodd"/><path stroke="#000000" stroke-width="1.0" stroke-linejoin="round" stroke-linecap="butt" d="m630.4803 430.1483l-8.314941 0" fill-rule="evenodd"/><path fill="#000000" fill-opacity="0.0" d="m630.4803 423.46588l-8.220459 0" fill-rule="evenodd"/><path stroke="#000000" stroke-width="1.0" stroke-linejoin="round" stroke-linecap="butt" d="m630.4803 423.46588l-8.220459 0" fill-rule="evenodd"/><path fill="#000000" fill-opacity="0.0" d="m630.59845 416.89896l-8.315002 0" fill-rule="evenodd"/><path stroke="#000000" stroke-width="1.0" stroke-linejoin="round" stroke-linecap="butt" d="m630.59845 416.89896l-8.315002 0" fill-rule="evenodd"/><path fill="#000000" fill-opacity="0.0" d="m630.2467 416.89896l0 -12.535431" fill-rule="evenodd"/><path stroke="#000000" stroke-width="1.0" stroke-linejoin="round" stroke-linecap="butt" d="m630.2467 416.89896l0 -12.535431" fill-rule="evenodd"/><path fill="#000000" fill-opacity="0.0" d="m630.3622 410.91995l-8.314941 0" fill-rule="evenodd"/><path stroke="#000000" stroke-width="1.0" stroke-linejoin="round" stroke-linecap="butt" d="m630.3622 410.91995l-8.314941 0" fill-rule="evenodd"/><path fill="#000000" fill-opacity="0.0" d="m624.9711 404.35565l0 6.4566956" fill-rule="evenodd"/><path stroke="#000000" stroke-width="1.0" stroke-linejoin="round" stroke-linecap="butt" d="m624.9711 404.35565l0 6.4566956" fill-rule="evenodd"/><path fill="#000000" fill-opacity="0.0" d="m636.1076 404.35565l0 12.535431" fill-rule="evenodd"/><path stroke="#000000" stroke-width="1.0" stroke-linejoin="round" stroke-linecap="butt" d="m636.1076 404.35565l0 12.535431" fill-rule="evenodd"/><path fill="#000000" fill-opacity="0.0" d="m642.79004 404.12204l12.188965 0" fill-rule="evenodd"/><path stroke="#000000" stroke-width="1.0" stroke-linejoin="round" stroke-linecap="butt" d="m642.79004 404.12204l12.188965 0" fill-rule="evenodd"/><path fill="#000000" fill-opacity="0.0" d="m642.79004 397.08792l12.188965 0" fill-rule="evenodd"/><path stroke="#000000" stroke-width="1.0" stroke-linejoin="round" stroke-linecap="butt" d="m642.79004 397.08792l12.188965 0" fill-rule="evenodd"/><path fill="#000000" fill-opacity="0.0" d="m636.3412 396.6181l0 -19.212585" fill-rule="evenodd"/><path stroke="#000000" stroke-width="1.0" stroke-linejoin="round" stroke-linecap="butt" d="m636.3412 396.6181l0 -19.212585" fill-rule="evenodd"/><path fill="#000000" fill-opacity="0.0" d="m630.2467 389.82022l5.8582764 0" fill-rule="evenodd"/><path stroke="#000000" stroke-width="1.0" stroke-linejoin="round" stroke-linecap="butt" d="m630.2467 389.82022l5.8582764 0" fill-rule="evenodd"/><path fill="#000000" fill-opacity="0.0" d="m630.0105 392.28217l6.3306885 0" fill-rule="evenodd"/><path stroke="#000000" stroke-width="1.0" stroke-linejoin="round" stroke-linecap="butt" d="m630.0105 392.28217l6.3306885 0" fill-rule="evenodd"/><path fill="#000000" fill-opacity="0.0" d="m633.17584 392.39764l0 4.4724426" fill-rule="evenodd"/><path stroke="#000000" stroke-width="1.0" stroke-linejoin="round" stroke-linecap="butt" d="m633.17584 392.39764l0 4.4724426" fill-rule="evenodd"/><path fill="#000000" fill-opacity="0.0" d="m630.1286 357.22964l0 -6.803131" fill-rule="evenodd"/><path stroke="#000000" stroke-width="1.0" stroke-linejoin="round" stroke-linecap="butt" d="m630.1286 357.22964l0 -6.803131" fill-rule="evenodd"/><path fill="#000000" fill-opacity="0.0" d="m625.0866 357.22964l-8.661438 0" fill-rule="evenodd"/><path stroke="#000000" stroke-width="1.0" stroke-linejoin="round" stroke-linecap="butt" d="m625.0866 357.22964l-8.661438 0" fill-rule="evenodd"/><path fill="#000000" fill-opacity="0.0" d="m624.61945 364.02756l-8.094482 0" fill-rule="evenodd"/><path stroke="#000000" stroke-width="1.0" stroke-linejoin="round" stroke-linecap="butt" d="m624.61945 364.02756l-8.094482 0" fill-rule="evenodd"/><path fill="#000000" fill-opacity="0.0" d="m624.853 370.8281l-8.440979 0" fill-rule="evenodd"/><path stroke="#000000" stroke-width="1.0" stroke-linejoin="round" stroke-linecap="butt" d="m624.853 370.8281l-8.440979 0" fill-rule="evenodd"/><path fill="#000000" fill-opacity="0.0" d="m624.50134 377.74408l-8.440979 0" fill-rule="evenodd"/><path stroke="#000000" stroke-width="1.0" stroke-linejoin="round" stroke-linecap="butt" d="m624.50134 377.74408l-8.440979 0" fill-rule="evenodd"/><path fill="#000000" fill-opacity="0.0" d="m610.9029 377.3924l0 19.338562" fill-rule="evenodd"/><path stroke="#000000" stroke-width="1.0" stroke-linejoin="round" stroke-linecap="butt" d="m610.9029 377.3924l0 19.338562" fill-rule="evenodd"/><path fill="#000000" fill-opacity="0.0" d="m624.7349 385.83334l-13.700806 0" fill-rule="evenodd"/><path stroke="#000000" stroke-width="1.0" stroke-linejoin="round" stroke-linecap="butt" d="m624.7349 385.83334l-13.700806 0" fill-rule="evenodd"/><path fill="#000000" fill-opacity="0.0" d="m617.2336 385.95145l0 11.24408" fill-rule="evenodd"/><path stroke="#000000" stroke-width="1.0" stroke-linejoin="round" stroke-linecap="butt" d="m617.2336 385.95145l0 11.24408" fill-rule="evenodd"/><path fill="#000000" fill-opacity="0.0" d="m598.7113 397.20602l0 -19.590546" fill-rule="evenodd"/><path stroke="#000000" stroke-width="1.0" stroke-linejoin="round" stroke-linecap="butt" d="m598.7113 397.20602l0 -19.590546" fill-rule="evenodd"/><path fill="#000000" fill-opacity="0.0" d="m585.81366 396.96982l0 -19.46457" fill-rule="evenodd"/><path stroke="#000000" stroke-width="1.0" stroke-linejoin="round" stroke-linecap="butt" d="m585.81366 396.96982l0 -19.46457" fill-rule="evenodd"/><path fill="#000000" fill-opacity="0.0" d="m573.2703 397.32153l0 -19.685059" fill-rule="evenodd"/><path stroke="#000000" stroke-width="1.0" stroke-linejoin="round" stroke-linecap="butt" d="m573.2703 397.32153l0 -19.685059" fill-rule="evenodd"/><path fill="#000000" fill-opacity="0.0" d="m561.07874 396.6181l0 -19.118103" fill-rule="evenodd"/><path stroke="#000000" stroke-width="1.0" stroke-linejoin="round" stroke-linecap="butt" d="m561.07874 396.6181l0 -19.118103" fill-rule="evenodd"/><path fill="#000000" fill-opacity="0.0" d="m573.85565 429.7966l0 -12.787415" fill-rule="evenodd"/><path stroke="#000000" stroke-width="1.0" stroke-linejoin="round" stroke-linecap="butt" d="m573.85565 429.7966l0 -12.787415" fill-rule="evenodd"/><path fill="#000000" fill-opacity="0.0" d="m573.50397 417.01706l6.677124 0" fill-rule="evenodd"/><path stroke="#000000" stroke-width="1.0" stroke-linejoin="round" stroke-linecap="butt" d="m573.50397 417.01706l6.677124 0" fill-rule="evenodd"/><path fill="#000000" fill-opacity="0.0" d="m580.18634 417.13516l0 -12.661407" fill-rule="evenodd"/><path stroke="#000000" stroke-width="1.0" stroke-linejoin="round" stroke-linecap="butt" d="m580.18634 417.13516l0 -12.661407" fill-rule="evenodd"/><path fill="#000000" fill-opacity="0.0" d="m586.40155 404.47375l0 25.196838" fill-rule="evenodd"/><path stroke="#000000" stroke-width="1.0" stroke-linejoin="round" stroke-linecap="butt" d="m586.40155 404.47375l0 25.196838" fill-rule="evenodd"/><path fill="#000000" fill-opacity="0.0" d="m586.5171 417.13516l30.236206 0" fill-rule="evenodd"/><path stroke="#000000" stroke-width="1.0" stroke-linejoin="round" stroke-linecap="butt" d="m586.5171 417.13516l30.236206 0" fill-rule="evenodd"/><path fill="#000000" fill-opacity="0.0" d="m611.48816 404.47375l0 12.4409485" fill-rule="evenodd"/><path stroke="#000000" stroke-width="1.0" stroke-linejoin="round" stroke-linecap="butt" d="m611.48816 404.47375l0 12.4409485" fill-rule="evenodd"/><path fill="#000000" fill-opacity="0.0" d="m595.77954 417.25067l0 12.440918" fill-rule="evenodd"/><path stroke="#000000" stroke-width="1.0" stroke-linejoin="round" stroke-linecap="butt" d="m595.77954 417.25067l0 12.440918" fill-rule="evenodd"/><path fill="#000000" fill-opacity="0.0" d="m608.5591 417.13516l0 12.787415" fill-rule="evenodd"/><path stroke="#000000" stroke-width="1.0" stroke-linejoin="round" stroke-linecap="butt" d="m608.5591 417.13516l0 12.787415" fill-rule="evenodd"/><path fill="#000000" fill-opacity="0.0" d="m542.67194 362.50262l-23.086609 0" fill-rule="evenodd"/><path stroke="#000000" stroke-width="1.0" stroke-linejoin="round" stroke-linecap="butt" d="m542.67194 362.50262l-23.086609 0" fill-rule="evenodd"/><path fill="#000000" fill-opacity="0.0" d="m542.55646 350.78085l-22.86615 0" fill-rule="evenodd"/><path stroke="#000000" stroke-width="1.0" stroke-linejoin="round" stroke-linecap="butt" d="m542.55646 350.78085l-22.86615 0" fill-rule="evenodd"/><path fill="#000000" fill-opacity="0.0" d="m542.4383 336.83072l-22.740112 0" fill-rule="evenodd"/><path stroke="#000000" stroke-width="1.0" stroke-linejoin="round" stroke-linecap="butt" d="m542.4383 336.83072l-22.740112 0" fill-rule="evenodd"/><path fill="#000000" fill-opacity="0.0" d="m542.67194 326.0433l-22.86615 0" fill-rule="evenodd"/><path stroke="#000000" stroke-width="1.0" stroke-linejoin="round" stroke-linecap="butt" d="m542.67194 326.0433l-22.86615 0" fill-rule="evenodd"/><path fill="#000000" fill-opacity="0.0" d="m519.69556 313.26642l22.86615 0" fill-rule="evenodd"/><path stroke="#000000" stroke-width="1.0" stroke-linejoin="round" stroke-linecap="butt" d="m519.69556 313.26642l22.86615 0" fill-rule="evenodd"/><path fill="#000000" fill-opacity="0.0" d="m555.4514 369.65485l-7.747986 0" fill-rule="evenodd"/><path stroke="#000000" stroke-width="1.0" stroke-linejoin="round" stroke-linecap="butt" d="m555.4514 369.65485l-7.747986 0" fill-rule="evenodd"/><path fill="#000000" fill-opacity="0.0" d="m555.80316 362.73883l-7.968506 0" fill-rule="evenodd"/><path stroke="#000000" stroke-width="1.0" stroke-linejoin="round" stroke-linecap="butt" d="m555.80316 362.73883l-7.968506 0" fill-rule="evenodd"/><path fill="#000000" fill-opacity="0.0" d="m555.4514 357.22964l-8.094482 0" fill-rule="evenodd"/><path stroke="#000000" stroke-width="1.0" stroke-linejoin="round" stroke-linecap="butt" d="m555.4514 357.22964l-8.094482 0" fill-rule="evenodd"/><path fill="#000000" fill-opacity="0.0" d="m555.68506 351.36615l-7.968506 0" fill-rule="evenodd"/><path stroke="#000000" stroke-width="1.0" stroke-linejoin="round" stroke-linecap="butt" d="m555.68506 351.36615l-7.968506 0" fill-rule="evenodd"/><path fill="#000000" fill-opacity="0.0" d="m555.5696 344.45013l-7.8425293 0" fill-rule="evenodd"/><path stroke="#000000" stroke-width="1.0" stroke-linejoin="round" stroke-linecap="butt" d="m555.5696 344.45013l-7.8425293 0" fill-rule="evenodd"/><path fill="#000000" fill-opacity="0.0" d="m555.68506 338.0013l-8.189026 0" fill-rule="evenodd"/><path stroke="#000000" stroke-width="1.0" stroke-linejoin="round" stroke-linecap="butt" d="m555.68506 338.0013l-8.189026 0" fill-rule="evenodd"/><path fill="#000000" fill-opacity="0.0" d="m555.68506 331.5551l-8.094482 0" fill-rule="evenodd"/><path stroke="#000000" stroke-width="1.0" stroke-linejoin="round" stroke-linecap="butt" d="m555.68506 331.5551l-8.094482 0" fill-rule="evenodd"/><path fill="#000000" fill-opacity="0.0" d="m555.80316 325.2244l-8.315002 0" fill-rule="evenodd"/><path stroke="#000000" stroke-width="1.0" stroke-linejoin="round" stroke-linecap="butt" d="m555.80316 325.2244l-8.315002 0" fill-rule="evenodd"/><path fill="#000000" fill-opacity="0.0" d="m555.5696 318.4239l-7.8425293 0" fill-rule="evenodd"/><path stroke="#000000" stroke-width="1.0" stroke-linejoin="round" stroke-linecap="butt" d="m555.5696 318.4239l-7.8425293 0" fill-rule="evenodd"/><path fill="#000000" fill-opacity="0.0" d="m556.03674 312.7966l-8.566956 0" fill-rule="evenodd"/><path stroke="#000000" stroke-width="1.0" stroke-linejoin="round" stroke-linecap="butt" d="m556.03674 312.7966l-8.566956 0" fill-rule="evenodd"/><path fill="#000000" fill-opacity="0.0" d="m558.7349 290.1719l0 22.393707" fill-rule="evenodd"/><path stroke="#000000" stroke-width="1.0" stroke-linejoin="round" stroke-linecap="butt" d="m558.7349 290.1719l0 22.393707" fill-rule="evenodd"/><path fill="#000000" fill-opacity="0.0" d="m573.97375 290.1719l0 22.393707" fill-rule="evenodd"/><path stroke="#000000" stroke-width="1.0" stroke-linejoin="round" stroke-linecap="butt" d="m573.97375 290.1719l0 22.393707" fill-rule="evenodd"/><path fill="#000000" fill-opacity="0.0" d="m558.9685 302.0118l-11.023621 0" fill-rule="evenodd"/><path stroke="#000000" stroke-width="1.0" stroke-linejoin="round" stroke-linecap="butt" d="m558.9685 302.0118l-11.023621 0" fill-rule="evenodd"/><path fill="#000000" fill-opacity="0.0" d="m580.07086 289.58398l1.9842529 0" fill-rule="evenodd"/><path stroke="#000000" stroke-width="1.0" stroke-linejoin="round" stroke-linecap="butt" d="m580.07086 289.58398l1.9842529 0" fill-rule="evenodd"/><path fill="#000000" fill-opacity="0.0" d="m582.063 289.58398l0 9.259857" fill-rule="evenodd"/><path stroke="#000000" stroke-width="1.0" stroke-linejoin="round" stroke-linecap="butt" d="m582.063 289.58398l0 9.259857" fill-rule="evenodd"/><path fill="#000000" fill-opacity="0.0" d="m581.9449 298.72833l3.7480469 0" fill-rule="evenodd"/><path stroke="#000000" stroke-width="1.0" stroke-linejoin="round" stroke-linecap="butt" d="m581.9449 298.72833l3.7480469 0" fill-rule="evenodd"/><path fill="#000000" fill-opacity="0.0" d="m582.1811 284.0748l-2.456665 0" fill-rule="evenodd"/><path stroke="#000000" stroke-width="1.0" stroke-linejoin="round" stroke-linecap="butt" d="m582.1811 284.0748l-2.456665 0" fill-rule="evenodd"/><path fill="#b4a7d6" d="m534.34906 312.7966l0 -11.606323l7.619446 0l0 11.48819z" fill-rule="evenodd"/><path stroke="#000000" stroke-width="1.0" stroke-linejoin="round" stroke-linecap="butt" d="m534.34906 312.7966l0 -11.606323l7.619446 0l0 11.48819z" fill-rule="evenodd"/><path fill="#000000" fill-opacity="0.0" d="m521.33594 313.03018l0 -23.086609" fill-rule="evenodd"/><path stroke="#000000" stroke-width="1.0" stroke-linejoin="round" stroke-linecap="butt" d="m521.33594 313.03018l0 -23.086609" fill-rule="evenodd"/><path fill="#000000" fill-opacity="0.0" d="m534.23096 305.2953l-12.661377 0" fill-rule="evenodd"/><path stroke="#000000" stroke-width="1.0" stroke-linejoin="round" stroke-linecap="butt" d="m534.23096 305.2953l-12.661377 0" fill-rule="evenodd"/><path fill="#000000" fill-opacity="0.0" d="m531.53546 289.9357l0 8.913391" fill-rule="evenodd"/><path stroke="#000000" stroke-width="1.0" stroke-linejoin="round" stroke-linecap="butt" d="m531.53546 289.9357l0 8.913391" fill-rule="evenodd"/><path fill="#000000" fill-opacity="0.0" d="m531.65356 298.84647l9.952759 0" fill-rule="evenodd"/><path stroke="#000000" stroke-width="1.0" stroke-linejoin="round" stroke-linecap="butt" d="m531.65356 298.84647l9.952759 0" fill-rule="evenodd"/><path fill="#000000" fill-opacity="0.0" d="m534.5827 301.19028l0 -2.1102295" fill-rule="evenodd"/><path stroke="#000000" stroke-width="1.0" stroke-linejoin="round" stroke-linecap="butt" d="m534.5827 301.19028l0 -2.1102295" fill-rule="evenodd"/><path fill="#000000" fill-opacity="0.0" d="m534.34906 289.9357l0 5.5118103" fill-rule="evenodd"/><path stroke="#000000" stroke-width="1.0" stroke-linejoin="round" stroke-linecap="butt" d="m534.34906 289.9357l0 5.5118103" fill-rule="evenodd"/><path fill="#000000" fill-opacity="0.0" d="m534.34906 295.4475l5.6378174 0" fill-rule="evenodd"/><path stroke="#000000" stroke-width="1.0" stroke-linejoin="round" stroke-linecap="butt" d="m534.34906 295.4475l5.6378174 0" fill-rule="evenodd"/><path fill="#000000" fill-opacity="0.0" d="m513.3648 313.03018l0 -23.086609" fill-rule="evenodd"/><path stroke="#000000" stroke-width="1.0" stroke-linejoin="round" stroke-linecap="butt" d="m513.3648 313.03018l0 -23.086609" fill-rule="evenodd"/><path fill="#000000" fill-opacity="0.0" d="m500.7034 313.03018l0 -22.86615" fill-rule="evenodd"/><path stroke="#000000" stroke-width="1.0" stroke-linejoin="round" stroke-linecap="butt" d="m500.7034 313.03018l0 -22.86615" fill-rule="evenodd"/><path fill="#000000" fill-opacity="0.0" d="m494.958 289.82022l-2.1102295 0" fill-rule="evenodd"/><path stroke="#000000" stroke-width="1.0" stroke-linejoin="round" stroke-linecap="butt" d="m494.958 289.82022l-2.1102295 0" fill-rule="evenodd"/><path fill="#000000" fill-opacity="0.0" d="m492.73227 289.82022l0 10.204712" fill-rule="evenodd"/><path stroke="#000000" stroke-width="1.0" stroke-linejoin="round" stroke-linecap="butt" d="m492.73227 289.82022l0 10.204712" fill-rule="evenodd"/><path fill="#000000" fill-opacity="0.0" d="m492.96588 300.01968l-4.0944824 0" fill-rule="evenodd"/><path stroke="#000000" stroke-width="1.0" stroke-linejoin="round" stroke-linecap="butt" d="m492.96588 300.01968l-4.0944824 0" fill-rule="evenodd"/><path fill="#000000" fill-opacity="0.0" d="m494.84253 284.0748l-2.8031616 0" fill-rule="evenodd"/><path stroke="#000000" stroke-width="1.0" stroke-linejoin="round" stroke-linecap="butt" d="m494.84253 284.0748l-2.8031616 0" fill-rule="evenodd"/><path fill="#000000" fill-opacity="0.0" d="m505.15747 276.57086l0 7.149597" fill-rule="evenodd"/><path stroke="#000000" stroke-width="1.0" stroke-linejoin="round" stroke-linecap="butt" d="m505.15747 276.57086l0 7.149597" fill-rule="evenodd"/><path fill="#000000" fill-opacity="0.0" d="m545.37006 274.22702l0 9.606323" fill-rule="evenodd"/><path stroke="#000000" stroke-width="1.0" stroke-linejoin="round" stroke-linecap="butt" d="m545.37006 274.22702l0 9.606323" fill-rule="evenodd"/><path fill="#000000" fill-opacity="0.0" d="m551.23096 276.92258l0 7.0236206" fill-rule="evenodd"/><path stroke="#000000" stroke-width="1.0" stroke-linejoin="round" stroke-linecap="butt" d="m551.23096 276.92258l0 7.0236206" fill-rule="evenodd"/><path fill="#000000" fill-opacity="0.0" d="m557.09186 277.2743l0 6.803131" fill-rule="evenodd"/><path stroke="#000000" stroke-width="1.0" stroke-linejoin="round" stroke-linecap="butt" d="m557.09186 277.2743l0 6.803131" fill-rule="evenodd"/><path fill="#000000" fill-opacity="0.0" d="m563.30444 277.5105l0 6.4566956" fill-rule="evenodd"/><path stroke="#000000" stroke-width="1.0" stroke-linejoin="round" stroke-linecap="butt" d="m563.30444 277.5105l0 6.4566956" fill-rule="evenodd"/><path fill="#000000" fill-opacity="0.0" d="m569.40155 277.5105l0 6.330719" fill-rule="evenodd"/><path stroke="#000000" stroke-width="1.0" stroke-linejoin="round" stroke-linecap="butt" d="m569.40155 277.5105l0 6.330719" fill-rule="evenodd"/><path fill="#000000" fill-opacity="0.0" d="m575.7323 277.62598l0 6.2047424" fill-rule="evenodd"/><path stroke="#000000" stroke-width="1.0" stroke-linejoin="round" stroke-linecap="butt" d="m575.7323 277.62598l0 6.2047424" fill-rule="evenodd"/></g></svg>