<svg version="1.1" viewBox="0.0 0.0 960.0 720.0" fill="none" stroke="none" stroke-linecap="square" stroke-miterlimit="10" xmlns:xlink="http://www.w3.org/1999/xlink" xmlns="http://www.w3.org/2000/svg"><clipPath id="p.0"><path d="m0 0l960.0 0l0 720.0l-960.0 0l0 -720.0z" clip-rule="nonzero"/></clipPath><g clip-path="url(#p.0)"><path fill="#000000" fill-opacity="0.0" d="m0 0l960.0 0l0 720.0l-960.0 0z" fill-rule="evenodd"/><path fill="#cfe2f3" d="m456.15222 405.65353l0 -5.0078735l12.091858 0l3.4881897 -2.0131226l14.992126 0l0 -25.62204l-13.299194 0l0 -78.92914l-14.335968 0l0 -5.6981506l30.56955 0l0 4.8346252l-10.188965 0l0 70.293976l13.125977 0l0 10.362213l7.4252014 0l0 6.2178345l-7.7716675 0l0 18.824158l78.23883 0l0 -44.039368l6.564331 0l0 38.858246l6.3884277 0l0 6.737549l6.2178955 0l0 6.908142l-97.5827 0l0 17.790009l-4.834656 0l0 -19.0z" fill-rule="evenodd"/><path stroke="#000000" stroke-width="1.0" stroke-linejoin="round" stroke-linecap="butt" d="m456.15222 405.65353l0 -5.0078735l12.091858 0l3.4881897 -2.0131226l14.992126 0l0 -25.62204l-13.299194 0l0 -78.92914l-14.335968 0l0 -5.6981506l30.56955 0l0 4.8346252l-10.188965 0l0 70.293976l13.125977 0l0 10.362213l7.4252014 0l0 6.2178345l-7.7716675 0l0 18.824158l78.23883 0l0 -44.039368l6.564331 0l0 38.858246l6.3884277 0l0 6.737549l6.2178955 0l0 6.908142l-97.5827 0l0 17.790009l-4.834656 0l0 -19.0z" fill-rule="evenodd"/><path fill="#cfe2f3" d="m386.7244 348.48557l0 -49.740173l8.635193 0l0 -2.4199219l3.9711304 0l1.5957947 -2.7664185l36.228333 0l0 -5.1758423l-8.80838 0l0 -3.4566956l-19.687683 0l0 3.1102295l-7.9448853 0l-6.5118103 3.7611694l-7.4776917 0l-4.21521 -4.212616l-4.076111 0l-2.9291382 5.0734863l2.9291382 0l3.128601 3.1286316l0 53.044617z" fill-rule="evenodd"/><path stroke="#000000" stroke-width="1.0" stroke-linejoin="round" stroke-linecap="butt" d="m386.7244 348.48557l0 -49.740173l8.635193 0l0 -2.4199219l3.9711304 0l1.5957947 -2.7664185l36.228333 0l0 -5.1758423l-8.80838 0l0 -3.4566956l-19.687683 0l0 3.1102295l-7.9448853 0l-6.5118103 3.7611694l-7.4776917 0l-4.21521 -4.212616l-4.076111 0l-2.9291382 5.0734863l2.9291382 0l3.128601 3.1286316l0 53.044617z" fill-rule="evenodd"/><path fill="#fce5cd" d="m408.48557 302.5433l0 50.950134l-37.65091 0l0 -51.467194l10.015747 0l0 46.632538l6.7375183 0l0 -49.3963l8.288727 0l0 -2.417328l2.9370117 0l0 5.5275574z" fill-rule="evenodd"/><path stroke="#000000" stroke-width="1.0" stroke-linejoin="round" stroke-linecap="butt" d="m408.48557 302.5433l0 50.950134l-37.65091 0l0 -51.467194l10.015747 0l0 46.632538l6.7375183 0l0 -49.3963l8.288727 0l0 -2.417328l2.9370117 0l0 5.5275574z" fill-rule="evenodd"/><path fill="#fce5cd" d="m375.15222 292.52756l-17.963257 0l0 -8.291351l21.417328 0l0 -7.2545776l22.624664 0l0 7.427826l7.254608 0l0 3.2808228l-7.9448853 0l-6.1049805 3.5249329l-7.54068 0l-3.7480469 -3.7453918l-4.7138977 0z" fill-rule="evenodd"/><path stroke="#000000" stroke-width="1.0" stroke-linejoin="round" stroke-linecap="butt" d="m375.15222 292.52756l-17.963257 0l0 -8.291351l21.417328 0l0 -7.2545776l22.624664 0l0 7.427826l7.254608 0l0 3.2808228l-7.9448853 0l-6.1049805 3.5249329l-7.54068 0l-3.7480469 -3.7453918l-4.7138977 0z" fill-rule="evenodd"/><path fill="#fce5cd" d="m434.73752 302.19946l-2.9369812 0l0 9.845154l1.894989 3.2834778l22.803162 0l0 48.527557l7.7716675 0l0.81100464 -3.0288696l8.343842 0l0 -66.22836l-15.026245 0l0 -6.734894l9.152222 0l0 -7.4252014l-31.259827 0l-2.0131226 3.4881897l0 3.9370117l3.566925 0l0 6.0446167l-3.2808533 0z" fill-rule="evenodd"/><path stroke="#000000" stroke-width="1.0" stroke-linejoin="round" stroke-linecap="butt" d="m434.73752 302.19946l-2.9369812 0l0 9.845154l1.894989 3.2834778l22.803162 0l0 48.527557l7.7716675 0l0.81100464 -3.0288696l8.343842 0l0 -66.22836l-15.026245 0l0 -6.734894l9.152222 0l0 -7.4252014l-31.259827 0l-2.0131226 3.4881897l0 3.9370117l3.566925 0l0 6.0446167l-3.2808533 0z" fill-rule="evenodd"/><path fill="#fce5cd" d="m473.4252 367.48294l-9.3280945 0l0 12.435699l-2.5905457 0l0 -8.635162l-13.299225 0l0 7.598419l-64.41992 0l0 29.53543l28.496063 0l0 9.498688l60.968506 0l0 -11.398956l-17.443573 0l0 -6.391083l12.089233 0l3.67453 -2.1207275l15.152222 0l0 -24.648285l-13.818878 0z" fill-rule="evenodd"/><path stroke="#000000" stroke-width="1.0" stroke-linejoin="round" stroke-linecap="butt" d="m473.4252 367.48294l-9.3280945 0l0 12.435699l-2.5905457 0l0 -8.635162l-13.299225 0l0 7.598419l-64.41992 0l0 29.53543l28.496063 0l0 9.498688l60.968506 0l0 -11.398956l-17.443573 0l0 -6.391083l12.089233 0l3.67453 -2.1207275l15.152222 0l0 -24.648285l-13.818878 0z" fill-rule="evenodd"/><path fill="#fce5cd" d="m487.24146 425.51443l0 5.3543396l-13.643036 0l0 13.125977l129.01315 0l0 -62.86615l-3.4541016 0l0 -25.21521l-21.414673 0l0 36.958008l6.3910522 0l0 7.08136l6.388489 0l0 8.291321l-97.5827 0l0 17.960632z" fill-rule="evenodd"/><path stroke="#000000" stroke-width="1.0" stroke-linejoin="round" stroke-linecap="butt" d="m487.24146 425.51443l0 5.3543396l-13.643036 0l0 13.125977l129.01315 0l0 -62.86615l-3.4541016 0l0 -25.21521l-21.414673 0l0 36.958008l6.3910522 0l0 7.08136l6.388489 0l0 8.291321l-97.5827 0l0 17.960632z" fill-rule="evenodd"/><path fill="#b4a7d6" d="m576.94226 408.24408l0 9.671936l6.2178345 0l0 -9.498688z" fill-rule="evenodd"/><path stroke="#000000" stroke-width="1.0" stroke-linejoin="round" stroke-linecap="butt" d="m576.94226 408.24408l0 9.671936l6.2178345 0l0 -9.498688z" fill-rule="evenodd"/><path fill="#fce5cd" d="m570.31494 355.22046l-7.08136 0l0 25.908142l-70.12073 0l0 17.443573l77.20209 0z" fill-rule="evenodd"/><path stroke="#000000" stroke-width="1.0" stroke-linejoin="round" stroke-linecap="butt" d="m570.31494 355.22046l-7.08136 0l0 25.908142l-70.12073 0l0 17.443573l77.20209 0z" fill-rule="evenodd"/><path fill="#fce5cd" d="m499.8504 373.35696l0 -57.168l29.532776 0l1.4987183 -2.5957947l0 -10.18634l1.7821655 0l1.553772 -2.6903076l0 -11.469818l-6.7349243 0l0 -4.8372498l-2.0734863 -2.0708618l-29.532776 0l-1.6929321 -2.9317627l-3.8346252 0l-1.9711304 -3.417328l-4.0734863 0l-1.671936 2.897644l0 9.322815l7.8897705 0l0 5.524933l-10.535431 0l0 11.572205l6.7375183 0l0 10.191589l-6.5643005 0l0 47.322845l13.126007 0l0 10.706024z" fill-rule="evenodd"/><path stroke="#000000" stroke-width="1.0" stroke-linejoin="round" stroke-linecap="butt" d="m499.8504 373.35696l0 -57.168l29.532776 0l1.4987183 -2.5957947l0 -10.18634l1.7821655 0l1.553772 -2.6903076l0 -11.469818l-6.7349243 0l0 -4.8372498l-2.0734863 -2.0708618l-29.532776 0l-1.6929321 -2.9317627l-3.8346252 0l-1.9711304 -3.417328l-4.0734863 0l-1.671936 2.897644l0 9.322815l7.8897705 0l0 5.524933l-10.535431 0l0 11.572205l6.7375183 0l0 10.191589l-6.5643005 0l0 47.322845l13.126007 0l0 10.706024z" fill-rule="evenodd"/><path fill="#b4a7d6" d="m486.2047 305.99738l-6.0446167 0l0 8.637787l6.0446167 0z" fill-rule="evenodd"/><path stroke="#000000" stroke-width="1.0" stroke-linejoin="round" stroke-linecap="butt" d="m486.2047 305.99738l-6.0446167 0l0 8.637787l6.0446167 0z" fill-rule="evenodd"/><path fill="#b4a7d6" d="m482.23358 288.03674l0 -9.32547l-14.509186 0l0 9.32547z" fill-rule="evenodd"/><path stroke="#000000" stroke-width="1.0" stroke-linejoin="round" stroke-linecap="butt" d="m482.23358 288.03674l0 -9.32547l-14.509186 0l0 9.32547z" fill-rule="evenodd"/><path fill="#000000" fill-opacity="0.0" d="m474.979 288.03674l0 -8.818909" fill-rule="evenodd"/><path stroke="#000000" stroke-width="1.0" stroke-linejoin="round" stroke-linecap="butt" d="m474.979 288.03674l0 -8.818909" fill-rule="evenodd"/><path fill="#b4a7d6" d="m464.79004 367.1391l0 -2.7637634l0.79263306 -2.9553833l7.6693115 0l0 5.7191467z" fill-rule="evenodd"/><path stroke="#000000" stroke-width="1.0" stroke-linejoin="round" stroke-linecap="butt" d="m464.79004 367.1391l0 -2.7637634l0.79263306 -2.9553833l7.6693115 0l0 5.7191467z" fill-rule="evenodd"/><path fill="#b4a7d6" d="m434.39108 293.90814l-6.3884583 0l0 4.664032l3.107605 3.107605l3.2808533 0z" fill-rule="evenodd"/><path stroke="#000000" stroke-width="1.0" stroke-linejoin="round" stroke-linecap="butt" d="m434.39108 293.90814l-6.3884583 0l0 4.664032l3.107605 3.107605l3.2808533 0z" fill-rule="evenodd"/><path fill="#b4a7d6" d="m405.0315 301.85303l0 -7.7716675l-3.6272888 0l-1.9265137 3.3385925l0 4.433075z" fill-rule="evenodd"/><path stroke="#000000" stroke-width="1.0" stroke-linejoin="round" stroke-linecap="butt" d="m405.0315 301.85303l0 -7.7716675l-3.6272888 0l-1.9265137 3.3385925l0 4.433075z" fill-rule="evenodd"/><path fill="#b4a7d6" d="m381.02362 301.67978l0 -5.6981506l-2.7637634 -2.763794l-3.454071 0l0 8.291351z" fill-rule="evenodd"/><path stroke="#000000" stroke-width="1.0" stroke-linejoin="round" stroke-linecap="butt" d="m381.02362 301.67978l0 -5.6981506l-2.7637634 -2.763794l-3.454071 0l0 8.291351z" fill-rule="evenodd"/><path fill="#b4a7d6" d="m474.46194 417.56955l0 -10.535431l5.524933 0l0 10.881897z" fill-rule="evenodd"/><path stroke="#000000" stroke-width="1.0" stroke-linejoin="round" stroke-linecap="butt" d="m474.46194 417.56955l0 -10.535431l5.524933 0l0 10.881897z" fill-rule="evenodd"/><path fill="#b4a7d6" d="m473.76904 418.77954l0 11.398926l13.472412 0l0 -23.317566l-6.2178345 0l0 11.572174z" fill-rule="evenodd"/><path stroke="#000000" stroke-width="1.0" stroke-linejoin="round" stroke-linecap="butt" d="m473.76904 418.77954l0 11.398926l13.472412 0l0 -23.317566l-6.2178345 0l0 11.572174z" fill-rule="evenodd"/><path fill="#000000" fill-opacity="0.0" d="m461.53543 406.59055l0 5.13385" fill-rule="evenodd"/><path stroke="#000000" stroke-width="1.0" stroke-linejoin="round" stroke-linecap="butt" d="m461.53543 406.59055l0 5.13385" fill-rule="evenodd"/><path fill="#000000" fill-opacity="0.0" d="m461.40945 411.73227l-12.598419 0" fill-rule="evenodd"/><path stroke="#000000" stroke-width="1.0" stroke-linejoin="round" stroke-linecap="butt" d="m461.40945 411.73227l-12.598419 0" fill-rule="evenodd"/><path fill="#000000" fill-opacity="0.0" d="m448.81104 411.21783l0 6.299225" fill-rule="evenodd"/><path stroke="#000000" stroke-width="1.0" stroke-linejoin="round" stroke-linecap="butt" d="m448.81104 411.21783l0 6.299225" fill-rule="evenodd"/><path fill="#000000" fill-opacity="0.0" d="m474.39108 397.46457l0 -17.480316" fill-rule="evenodd"/><path stroke="#000000" stroke-width="1.0" stroke-linejoin="round" stroke-linecap="butt" d="m474.39108 397.46457l0 -17.480316" fill-rule="evenodd"/><path fill="#000000" fill-opacity="0.0" d="m474.13385 379.98425l-9.763763 0" fill-rule="evenodd"/><path stroke="#000000" stroke-width="1.0" stroke-linejoin="round" stroke-linecap="butt" d="m474.13385 379.98425l-9.763763 0" fill-rule="evenodd"/><path fill="#000000" fill-opacity="0.0" d="m512.95013 408.38846l0 35.62204" fill-rule="evenodd"/><path stroke="#000000" stroke-width="1.0" stroke-linejoin="round" stroke-linecap="butt" d="m512.95013 408.38846l0 35.62204" fill-rule="evenodd"/><path fill="#000000" fill-opacity="0.0" d="m493.66928 423.55643l18.897675 0" fill-rule="evenodd"/><path stroke="#000000" stroke-width="1.0" stroke-linejoin="round" stroke-linecap="butt" d="m493.66928 423.55643l18.897675 0" fill-rule="evenodd"/><path fill="#000000" fill-opacity="0.0" d="m538.14435 408.64566l0 35.212616" fill-rule="evenodd"/><path stroke="#000000" stroke-width="1.0" stroke-linejoin="round" stroke-linecap="butt" d="m538.14435 408.64566l0 35.212616" fill-rule="evenodd"/><path fill="#000000" fill-opacity="0.0" d="m551.126 408.9029l0 34.70865" fill-rule="evenodd"/><path stroke="#000000" stroke-width="1.0" stroke-linejoin="round" stroke-linecap="butt" d="m551.126 408.9029l0 34.70865" fill-rule="evenodd"/><path fill="#000000" fill-opacity="0.0" d="m560.12335 408.7743l0 9.763763" fill-rule="evenodd"/><path stroke="#000000" stroke-width="1.0" stroke-linejoin="round" stroke-linecap="butt" d="m560.12335 408.7743l0 9.763763" fill-rule="evenodd"/><path fill="#000000" fill-opacity="0.0" d="m551.3832 418.80054l51.14966 0" fill-rule="evenodd"/><path stroke="#000000" stroke-width="1.0" stroke-linejoin="round" stroke-linecap="butt" d="m551.3832 418.80054l51.14966 0" fill-rule="evenodd"/><path fill="#000000" fill-opacity="0.0" d="m568.09186 408.38846l0 9.8897705" fill-rule="evenodd"/><path stroke="#000000" stroke-width="1.0" stroke-linejoin="round" stroke-linecap="butt" d="m568.09186 408.38846l0 9.8897705" fill-rule="evenodd"/><path fill="#000000" fill-opacity="0.0" d="m571.17584 408.7743l0 4.251953" fill-rule="evenodd"/><path stroke="#000000" stroke-width="1.0" stroke-linejoin="round" stroke-linecap="butt" d="m571.17584 408.7743l0 4.251953" fill-rule="evenodd"/><path fill="#000000" fill-opacity="0.0" d="m571.17584 413.01575l5.6693115 0" fill-rule="evenodd"/><path stroke="#000000" stroke-width="1.0" stroke-linejoin="round" stroke-linecap="butt" d="m571.17584 413.01575l5.6693115 0" fill-rule="evenodd"/><path fill="#000000" fill-opacity="0.0" d="m590.8425 406.71915l11.968506 0" fill-rule="evenodd"/><path stroke="#000000" stroke-width="1.0" stroke-linejoin="round" stroke-linecap="butt" d="m590.8425 406.71915l11.968506 0" fill-rule="evenodd"/><path fill="#000000" fill-opacity="0.0" d="m590.8425 400.16272l11.559021 0" fill-rule="evenodd"/><path stroke="#000000" stroke-width="1.0" stroke-linejoin="round" stroke-linecap="butt" d="m590.8425 400.16272l11.559021 0" fill-rule="evenodd"/><path fill="#000000" fill-opacity="0.0" d="m583.1312 393.22308l0 -11.811005" fill-rule="evenodd"/><path stroke="#000000" stroke-width="1.0" stroke-linejoin="round" stroke-linecap="butt" d="m583.1312 393.22308l0 -11.811005" fill-rule="evenodd"/><path fill="#000000" fill-opacity="0.0" d="m582.7454 381.39633l-5.0078735 0" fill-rule="evenodd"/><path stroke="#000000" stroke-width="1.0" stroke-linejoin="round" stroke-linecap="butt" d="m582.7454 381.39633l-5.0078735 0" fill-rule="evenodd"/><path fill="#000000" fill-opacity="0.0" d="m582.874 381.0105l0 -7.2125854" fill-rule="evenodd"/><path stroke="#000000" stroke-width="1.0" stroke-linejoin="round" stroke-linecap="butt" d="m582.874 381.0105l0 -7.2125854" fill-rule="evenodd"/><path fill="#000000" fill-opacity="0.0" d="m583.0026 373.81366l16.188965 0" fill-rule="evenodd"/><path stroke="#000000" stroke-width="1.0" stroke-linejoin="round" stroke-linecap="butt" d="m583.0026 373.81366l16.188965 0" fill-rule="evenodd"/><path fill="#000000" fill-opacity="0.0" d="m570.66144 361.8609l-7.0551147 0" fill-rule="evenodd"/><path stroke="#000000" stroke-width="1.0" stroke-linejoin="round" stroke-linecap="butt" d="m570.66144 361.8609l-7.0551147 0" fill-rule="evenodd"/><path fill="#000000" fill-opacity="0.0" d="m570.2782 368.02887l-6.8031616 0" fill-rule="evenodd"/><path stroke="#000000" stroke-width="1.0" stroke-linejoin="round" stroke-linecap="butt" d="m570.2782 368.02887l-6.8031616 0" fill-rule="evenodd"/><path fill="#000000" fill-opacity="0.0" d="m570.2782 374.07086l-6.425171 0" fill-rule="evenodd"/><path stroke="#000000" stroke-width="1.0" stroke-linejoin="round" stroke-linecap="butt" d="m570.2782 374.07086l-6.425171 0" fill-rule="evenodd"/><path fill="#000000" fill-opacity="0.0" d="m570.1496 381.1391l-6.425171 0" fill-rule="evenodd"/><path stroke="#000000" stroke-width="1.0" stroke-linejoin="round" stroke-linecap="butt" d="m570.1496 381.1391l-6.425171 0" fill-rule="evenodd"/><path fill="#000000" fill-opacity="0.0" d="m557.29395 398.61942l0 -17.102356" fill-rule="evenodd"/><path stroke="#000000" stroke-width="1.0" stroke-linejoin="round" stroke-linecap="butt" d="m557.29395 398.61942l0 -17.102356" fill-rule="evenodd"/><path fill="#000000" fill-opacity="0.0" d="m544.4409 398.2362l0 -16.850372" fill-rule="evenodd"/><path stroke="#000000" stroke-width="1.0" stroke-linejoin="round" stroke-linecap="butt" d="m544.4409 398.2362l0 -16.850372" fill-rule="evenodd"/><path fill="#000000" fill-opacity="0.0" d="m529.147 398.36484l0 -6.1732483" fill-rule="evenodd"/><path stroke="#000000" stroke-width="1.0" stroke-linejoin="round" stroke-linecap="butt" d="m529.147 398.36484l0 -6.1732483" fill-rule="evenodd"/><path fill="#000000" fill-opacity="0.0" d="m529.0184 392.1942l-10.5512085 0" fill-rule="evenodd"/><path stroke="#000000" stroke-width="1.0" stroke-linejoin="round" stroke-linecap="butt" d="m529.0184 392.1942l-10.5512085 0" fill-rule="evenodd"/><path fill="#000000" fill-opacity="0.0" d="m518.47766 392.1942l0 -10.2677" fill-rule="evenodd"/><path stroke="#000000" stroke-width="1.0" stroke-linejoin="round" stroke-linecap="butt" d="m518.47766 392.1942l0 -10.2677" fill-rule="evenodd"/><path fill="#000000" fill-opacity="0.0" d="m512.56433 398.36484l0 -16.850403" fill-rule="evenodd"/><path stroke="#000000" stroke-width="1.0" stroke-linejoin="round" stroke-linecap="butt" d="m512.56433 398.36484l0 -16.850403" fill-rule="evenodd"/><path fill="#000000" fill-opacity="0.0" d="m499.9685 398.61942l0 -11.811005" fill-rule="evenodd"/><path stroke="#000000" stroke-width="1.0" stroke-linejoin="round" stroke-linecap="butt" d="m499.9685 398.61942l0 -11.811005" fill-rule="evenodd"/><path fill="#000000" fill-opacity="0.0" d="m500.0971 386.9239l-6.2991943 0" fill-rule="evenodd"/><path stroke="#000000" stroke-width="1.0" stroke-linejoin="round" stroke-linecap="butt" d="m500.0971 386.9239l-6.2991943 0" fill-rule="evenodd"/><path fill="#000000" fill-opacity="0.0" d="m473.23358 372.14172l-8.881866 0" fill-rule="evenodd"/><path stroke="#000000" stroke-width="1.0" stroke-linejoin="round" stroke-linecap="butt" d="m473.23358 372.14172l-8.881866 0" fill-rule="evenodd"/><path fill="#000000" fill-opacity="0.0" d="m486.60104 379.59842l-13.102356 0" fill-rule="evenodd"/><path stroke="#000000" stroke-width="1.0" stroke-linejoin="round" stroke-linecap="butt" d="m486.60104 379.59842l-13.102356 0" fill-rule="evenodd"/><path fill="#000000" fill-opacity="0.0" d="m486.72964 395.1496l-11.811005 0" fill-rule="evenodd"/><path stroke="#000000" stroke-width="1.0" stroke-linejoin="round" stroke-linecap="butt" d="m486.72964 395.1496l-11.811005 0" fill-rule="evenodd"/><path fill="#000000" fill-opacity="0.0" d="m481.33072 395.40683l0 2.582672" fill-rule="evenodd"/><path stroke="#000000" stroke-width="1.0" stroke-linejoin="round" stroke-linecap="butt" d="m481.33072 395.40683l0 2.582672" fill-rule="evenodd"/><path fill="#000000" fill-opacity="0.0" d="m499.71127 370.47244l-5.921234 0" fill-rule="evenodd"/><path stroke="#000000" stroke-width="1.0" stroke-linejoin="round" stroke-linecap="butt" d="m499.71127 370.47244l-5.921234 0" fill-rule="evenodd"/><path fill="#000000" fill-opacity="0.0" d="m499.71127 364.30185l-6.2991943 0" fill-rule="evenodd"/><path stroke="#000000" stroke-width="1.0" stroke-linejoin="round" stroke-linecap="butt" d="m499.71127 364.30185l-6.2991943 0" fill-rule="evenodd"/><path fill="#000000" fill-opacity="0.0" d="m499.8399 340.3937l-19.275604 0" fill-rule="evenodd"/><path stroke="#000000" stroke-width="1.0" stroke-linejoin="round" stroke-linecap="butt" d="m499.8399 340.3937l-19.275604 0" fill-rule="evenodd"/><path fill="#000000" fill-opacity="0.0" d="m486.34384 315.58792l15.055115 0.12597656" fill-rule="evenodd"/><path stroke="#000000" stroke-width="1.0" stroke-linejoin="round" stroke-linecap="butt" d="m486.34384 315.58792l15.055115 0.12597656" fill-rule="evenodd"/><path fill="#000000" fill-opacity="0.0" d="m473.23358 340.5223l-16.314941 0" fill-rule="evenodd"/><path stroke="#000000" stroke-width="1.0" stroke-linejoin="round" stroke-linecap="butt" d="m473.23358 340.5223l-16.314941 0" fill-rule="evenodd"/><path fill="#000000" fill-opacity="0.0" d="m485.18634 294.50656l0 10.551178" fill-rule="evenodd"/><path stroke="#000000" stroke-width="1.0" stroke-linejoin="round" stroke-linecap="butt" d="m485.18634 294.50656l0 10.551178" fill-rule="evenodd"/><path fill="#000000" fill-opacity="0.0" d="m485.57217 302.3491l-5.13385 0" fill-rule="evenodd"/><path stroke="#000000" stroke-width="1.0" stroke-linejoin="round" stroke-linecap="butt" d="m485.57217 302.3491l-5.13385 0" fill-rule="evenodd"/><path fill="#000000" fill-opacity="0.0" d="m484.92914 299.13385l-4.6299133 0" fill-rule="evenodd"/><path stroke="#000000" stroke-width="1.0" stroke-linejoin="round" stroke-linecap="butt" d="m484.92914 299.13385l-4.6299133 0" fill-rule="evenodd"/><path fill="#000000" fill-opacity="0.0" d="m489.94226 288.08136l0 -8.472443" fill-rule="evenodd"/><path stroke="#000000" stroke-width="1.0" stroke-linejoin="round" stroke-linecap="butt" d="m489.94226 288.08136l0 -8.472443" fill-rule="evenodd"/><path fill="#000000" fill-opacity="0.0" d="m491.09973 293.73752l17.102356 0" fill-rule="evenodd"/><path stroke="#000000" stroke-width="1.0" stroke-linejoin="round" stroke-linecap="butt" d="m491.09973 293.73752l17.102356 0" fill-rule="evenodd"/><path fill="#000000" fill-opacity="0.0" d="m508.32285 293.99475l0 21.73227" fill-rule="evenodd"/><path stroke="#000000" stroke-width="1.0" stroke-linejoin="round" stroke-linecap="butt" d="m508.32285 293.99475l0 21.73227" fill-rule="evenodd"/><path fill="#000000" fill-opacity="0.0" d="m461.28085 287.82416l0 -7.3385925" fill-rule="evenodd"/><path stroke="#000000" stroke-width="1.0" stroke-linejoin="round" stroke-linecap="butt" d="m461.28085 287.82416l0 -7.3385925" fill-rule="evenodd"/><path fill="#000000" fill-opacity="0.0" d="m458.58005 293.3517l-20.692902 0" fill-rule="evenodd"/><path stroke="#000000" stroke-width="1.0" stroke-linejoin="round" stroke-linecap="butt" d="m458.58005 293.3517l-20.692902 0" fill-rule="evenodd"/><path fill="#000000" fill-opacity="0.0" d="m473.61942 305.30447l-17.102356 0" fill-rule="evenodd"/><path stroke="#000000" stroke-width="1.0" stroke-linejoin="round" stroke-linecap="butt" d="m473.61942 305.30447l-17.102356 0" fill-rule="evenodd"/><path fill="#000000" fill-opacity="0.0" d="m456.65353 305.04724l0 13.51181" fill-rule="evenodd"/><path stroke="#000000" stroke-width="1.0" stroke-linejoin="round" stroke-linecap="butt" d="m456.65353 305.04724l0 13.51181" fill-rule="evenodd"/><path fill="#000000" fill-opacity="0.0" d="m398.4252 302.09186l-11.055115 0" fill-rule="evenodd"/><path stroke="#000000" stroke-width="1.0" stroke-linejoin="round" stroke-linecap="butt" d="m398.4252 302.09186l-11.055115 0" fill-rule="evenodd"/><path fill="#000000" fill-opacity="0.0" d="m391.22833 299.26248l0 2.456665" fill-rule="evenodd"/><path stroke="#000000" stroke-width="1.0" stroke-linejoin="round" stroke-linecap="butt" d="m391.22833 299.26248l0 2.456665" fill-rule="evenodd"/><path fill="#000000" fill-opacity="0.0" d="m395.46982 299.26248l0 2.3306885" fill-rule="evenodd"/><path stroke="#000000" stroke-width="1.0" stroke-linejoin="round" stroke-linecap="butt" d="m395.46982 299.26248l0 2.3306885" fill-rule="evenodd"/><path fill="#000000" fill-opacity="0.0" d="m408.1942 310.5748l-19.905487 0" fill-rule="evenodd"/><path stroke="#000000" stroke-width="1.0" stroke-linejoin="round" stroke-linecap="butt" d="m408.1942 310.5748l-19.905487 0" fill-rule="evenodd"/><path fill="#000000" fill-opacity="0.0" d="m408.32285 324.4567l-20.314972 0" fill-rule="evenodd"/><path stroke="#000000" stroke-width="1.0" stroke-linejoin="round" stroke-linecap="butt" d="m408.32285 324.4567l-20.314972 0" fill-rule="evenodd"/><path fill="#000000" fill-opacity="0.0" d="m408.32285 332.16797l-20.692932 0" fill-rule="evenodd"/><path stroke="#000000" stroke-width="1.0" stroke-linejoin="round" stroke-linecap="butt" d="m408.32285 332.16797l-20.692932 0" fill-rule="evenodd"/><path fill="#000000" fill-opacity="0.0" d="m408.45145 342.32285l-20.440948 0" fill-rule="evenodd"/><path stroke="#000000" stroke-width="1.0" stroke-linejoin="round" stroke-linecap="butt" d="m408.45145 342.32285l-20.440948 0" fill-rule="evenodd"/><path fill="#000000" fill-opacity="0.0" d="m386.60104 349.13385l0 4.126007" fill-rule="evenodd"/><path stroke="#000000" stroke-width="1.0" stroke-linejoin="round" stroke-linecap="butt" d="m386.60104 349.13385l0 4.126007" fill-rule="evenodd"/><path fill="#000000" fill-opacity="0.0" d="m380.81628 341.42258l-9.51181 0" fill-rule="evenodd"/><path stroke="#000000" stroke-width="1.0" stroke-linejoin="round" stroke-linecap="butt" d="m380.81628 341.42258l-9.51181 0" fill-rule="evenodd"/><path fill="#000000" fill-opacity="0.0" d="m380.55905 333.9685l-9.13385 0" fill-rule="evenodd"/><path stroke="#000000" stroke-width="1.0" stroke-linejoin="round" stroke-linecap="butt" d="m380.55905 333.9685l-9.13385 0" fill-rule="evenodd"/><path fill="#000000" fill-opacity="0.0" d="m380.81628 315.45932l-9.51181 0" fill-rule="evenodd"/><path stroke="#000000" stroke-width="1.0" stroke-linejoin="round" stroke-linecap="butt" d="m380.81628 315.45932l-9.51181 0" fill-rule="evenodd"/><path fill="#000000" fill-opacity="0.0" d="m400.99738 287.56693l0 -3.8425293" fill-rule="evenodd"/><path stroke="#000000" stroke-width="1.0" stroke-linejoin="round" stroke-linecap="butt" d="m400.99738 287.56693l0 -3.8425293" fill-rule="evenodd"/><path fill="#000000" fill-opacity="0.0" d="m378.76117 287.56693l0 -4.75589" fill-rule="evenodd"/><path stroke="#000000" stroke-width="1.0" stroke-linejoin="round" stroke-linecap="butt" d="m378.76117 287.56693l0 -4.75589" fill-rule="evenodd"/></g></svg>