<svg version="1.1" viewBox="0.0 0.0 960.0 720.0" fill="none" stroke="none" stroke-linecap="square" stroke-miterlimit="10" xmlns:xlink="http://www.w3.org/1999/xlink" xmlns="http://www.w3.org/2000/svg"><clipPath id="p.0"><path d="m0 0l960.0 0l0 720.0l-960.0 0l0 -720.0z" clip-rule="nonzero"/></clipPath><g clip-path="url(#p.0)"><path fill="#000000" fill-opacity="0.0" d="m0 0l960.0 0l0 720.0l-960.0 0z" fill-rule="evenodd"/><path fill="#c9daf8" d="m337.41208 443.8294l0 -8.393707l-13.587921 0l0 -30.53543l61.79001 0l0 3.6771545l13.989502 0l5.08136 -0.12335205l-0.21258545 -4.496063l34.04724 -0.32284546l-0.21520996 22.055115l0 2.2493591l-0.013122559 1.1810913l0 2.876648l21.422546 0l0 -2.795288l-17.745392 0l0 -18.944855l3.9973755 0l0 -6.876648l103.1181 0l0.24932861 -115.805786l-6.9606323 0l-0.16271973 108.93176l-99.20209 0l0 -18.7034l1.5144348 -5.656189l0 -79.3963l7.199463 0l8.994751 -5.19162l120.34122 0l0 -4.7217712l-120.863525 0l-7.4330444 4.291321l-7.034149 0l-8.288696 -4.7847595l-2.902893 0l0 3.4514465l3.6771545 3.6771545l0 65.787415l0 21.981598l0 20.065643l-118.86612 0l0 46.76114z" fill-rule="evenodd"/><path stroke="#000000" stroke-width="1.0" stroke-linejoin="round" stroke-linecap="butt" d="m337.41208 443.8294l0 -8.393707l-13.587921 0l0 -30.53543l61.79001 0l0 3.6771545l13.989502 0l5.08136 -0.12335205l-0.21258545 -4.496063l34.04724 -0.32284546l-0.21520996 22.055115l0 2.2493591l-0.013122559 1.1810913l0 2.876648l21.422546 0l0 -2.795288l-17.745392 0l0 -18.944855l3.9973755 0l0 -6.876648l103.1181 0l0.24932861 -115.805786l-6.9606323 0l-0.16271973 108.93176l-99.20209 0l0 -18.7034l1.5144348 -5.656189l0 -79.3963l7.199463 0l8.994751 -5.19162l120.34122 0l0 -4.7217712l-120.863525 0l-7.4330444 4.291321l-7.034149 0l-8.288696 -4.7847595l-2.902893 0l0 3.4514465l3.6771545 3.6771545l0 65.787415l0 21.981598l0 20.065643l-118.86612 0l0 46.76114z" fill-rule="evenodd"/><path fill="#c9daf8" d="m438.30447 428.69028l0 -2.7847595l-27.194244 0l0 6.8530273l-8.564301 0l0 -6.6378174l2.5695496 0l0 -17.666656l-5.4619446 0l0 29.335968l9.314972 0l0 2.9973755l9.742767 0l0 -11.7769165z" fill-rule="evenodd"/><path stroke="#000000" stroke-width="1.0" stroke-linejoin="round" stroke-linecap="butt" d="m438.30447 428.69028l0 -2.7847595l-27.194244 0l0 6.8530273l-8.564301 0l0 -6.6378174l2.5695496 0l0 -17.666656l-5.4619446 0l0 29.335968l9.314972 0l0 2.9973755l9.742767 0l0 -11.7769165z" fill-rule="evenodd"/><path fill="#000000" fill-opacity="0.0" d="m438.41208 426.44095l0 1.8267822" fill-rule="evenodd"/><path stroke="#c9daf8" stroke-width="2.0" stroke-linejoin="round" stroke-linecap="butt" d="m438.41208 426.44095l0 1.8267822" fill-rule="evenodd"/><path fill="#000000" fill-opacity="0.0" d="m400.2966 408.34647l3.9685059 0.12597656" fill-rule="evenodd"/><path stroke="#c9daf8" stroke-width="2.0" stroke-linejoin="round" stroke-linecap="butt" d="m400.2966 408.34647l3.9685059 0.12597656" fill-rule="evenodd"/><path fill="#000000" fill-opacity="0.0" d="m543.01575 287.5748l5.795288 0" fill-rule="evenodd"/><path stroke="#c9daf8" stroke-width="2.0" stroke-linejoin="round" stroke-linecap="butt" d="m543.01575 287.5748l5.795288 0" fill-rule="evenodd"/><path fill="#fce5cd" d="m337.87665 434.68503l-13.383209 0l0 -29.443573l22.37796 0l0 39.40158l-8.24411 0l0 5.24411l-10.601044 0l0 -5.1391296l9.742798 0z" fill-rule="evenodd"/><path stroke="#000000" stroke-width="1.0" stroke-linejoin="round" stroke-linecap="butt" d="m337.87665 434.68503l-13.383209 0l0 -29.443573l22.37796 0l0 39.40158l-8.24411 0l0 5.24411l-10.601044 0l0 -5.1391296l9.742798 0z" fill-rule="evenodd"/><path fill="#fce5cd" d="m318.8189 435.11285l-15.417328 0l0 -51.926514l40.792633 0l0 -5.354309l93.57483 0l0 18.737518l-118.950134 0z" fill-rule="evenodd"/><path stroke="#000000" stroke-width="1.0" stroke-linejoin="round" stroke-linecap="butt" d="m318.8189 435.11285l-15.417328 0l0 -51.926514l40.792633 0l0 -5.354309l93.57483 0l0 18.737518l-118.950134 0z" fill-rule="evenodd"/><path fill="#fce5cd" d="m385.6273 409.0971l0 34.367462l18.737549 0l0 1.9265137l15.524933 0l0 -2.5695496l18.307068 0l0 -1.8189087l28.803162 0l0 -11.24408l-6.6404114 0l0 2.7847595l-22.48294 0l0 -3.2125854l-18.522308 0l0 11.776886l-10.81366 0l0 -2.67453l-9.207336 0l0 -29.335968z" fill-rule="evenodd"/><path stroke="#000000" stroke-width="1.0" stroke-linejoin="round" stroke-linecap="butt" d="m385.6273 409.0971l0 34.367462l18.737549 0l0 1.9265137l15.524933 0l0 -2.5695496l18.307068 0l0 -1.8189087l28.803162 0l0 -11.24408l-6.6404114 0l0 2.7847595l-22.48294 0l0 -3.2125854l-18.522308 0l0 11.776886l-10.81366 0l0 -2.67453l-9.207336 0l0 -29.335968z" fill-rule="evenodd"/><path fill="#fce5cd" d="m405.75592 426.33334l0 -17.236237l0 -4.391083l32.228333 0l0 20.771667l-27.089233 0l0 7.065613l-7.708679 0l0 -5.994751z" fill-rule="evenodd"/><path stroke="#000000" stroke-width="1.0" stroke-linejoin="round" stroke-linecap="butt" d="m405.75592 426.33334l0 -17.236237l0 -4.391083l32.228333 0l0 20.771667l-27.089233 0l0 7.065613l-7.708679 0l0 -5.994751z" fill-rule="evenodd"/><path fill="#fce5cd" d="m467.10498 428.7953l-24.409454 0l0 -17.986877l3.8530273 0l0 -6.850403l12.740173 0l0 5.994751l8.45929 0l0 -6.102356l68.950165 0l0 12.312317l-69.69818 0z" fill-rule="evenodd"/><path stroke="#000000" stroke-width="1.0" stroke-linejoin="round" stroke-linecap="butt" d="m467.10498 428.7953l-24.409454 0l0 -17.986877l3.8530273 0l0 -6.850403l12.740173 0l0 5.994751l8.45929 0l0 -6.102356l68.950165 0l0 12.312317l-69.69818 0z" fill-rule="evenodd"/><path fill="#b4a7d6" d="m467.32022 403.8504l0 5.566925l-7.3884583 0l0 -5.45932z" fill-rule="evenodd"/><path stroke="#000000" stroke-width="1.0" stroke-linejoin="round" stroke-linecap="butt" d="m467.32022 403.8504l0 5.566925l-7.3884583 0l0 -5.45932z" fill-rule="evenodd"/><path fill="#fce5cd" d="m530.48816 442.82153l0 -26.123383l6.9606323 0l0 -12.740143l12.419983 0l0 -26.981628l68.32019 0l0 -27.020996l34.821533 0l0 27.062988l3.5879517 0l0 39.66928l-25.120789 0l0 26.769043z" fill-rule="evenodd"/><path stroke="#000000" stroke-width="1.0" stroke-linejoin="round" stroke-linecap="butt" d="m530.48816 442.82153l0 -26.123383l6.9606323 0l0 -12.740143l12.419983 0l0 -26.981628l68.32019 0l0 -27.020996l34.821533 0l0 27.062988l3.5879517 0l0 39.66928l-25.120789 0l0 26.769043z" fill-rule="evenodd"/><path fill="#fce5cd" d="m549.8084 370.6168l6.498657 0l0 -59.265076l27.15747 0l2.9107666 -2.908142l0 -10.863525l3.2493896 -3.2493286l0 -8.391083l-1.6299438 -2.8241577l-4.3359375 0l0 -4.740143l-2.6194458 -2.6194153l-28.32019 0l-1.7375488 -3.0105286l-4.5669556 0l-1.5196533 -2.6325378l-4.301819 0l-1.6378174 2.8346558l0 9.307098l42.666687 0l0 5.818878l-31.522339 0z" fill-rule="evenodd"/><path stroke="#000000" stroke-width="1.0" stroke-linejoin="round" stroke-linecap="butt" d="m549.8084 370.6168l6.498657 0l0 -59.265076l27.15747 0l2.9107666 -2.908142l0 -10.863525l3.2493896 -3.2493286l0 -8.391083l-1.6299438 -2.8241577l-4.3359375 0l0 -4.740143l-2.6194458 -2.6194153l-28.32019 0l-1.7375488 -3.0105286l-4.5669556 0l-1.5196533 -2.6325378l-4.301819 0l-1.6378174 2.8346558l0 9.307098l42.666687 0l0 5.818878l-31.522339 0z" fill-rule="evenodd"/><path fill="#b4a7d6" d="m538.3648 282.3517l0 -9.312347l-11.931763 0l-1.9370117 3.356964l0 5.9553833z" fill-rule="evenodd"/><path stroke="#000000" stroke-width="1.0" stroke-linejoin="round" stroke-linecap="butt" d="m538.3648 282.3517l0 -9.312347l-11.931763 0l-1.9370117 3.356964l0 5.9553833z" fill-rule="evenodd"/><path fill="#fce5cd" d="m524.105 282.2546l0 -7.564331l-29.29132 0l-2.2257385 3.8556519l0 3.7086792z" fill-rule="evenodd"/><path stroke="#000000" stroke-width="1.0" stroke-linejoin="round" stroke-linecap="butt" d="m524.105 282.2546l0 -7.564331l-29.29132 0l-2.2257385 3.8556519l0 3.7086792z" fill-rule="evenodd"/><path fill="#fce5cd" d="m486.7638 282.2546l0 -3.4908142l-27.254608 0l0 -8.535461l-22.601044 0l0 8.826782l-20.07611 0l0 8.24411l17.265076 0l0 -5.335968l3.6850586 0l8.125977 4.6929016l6.908142 0l7.4015503 -4.272949z" fill-rule="evenodd"/><path stroke="#000000" stroke-width="1.0" stroke-linejoin="round" stroke-linecap="butt" d="m486.7638 282.2546l0 -3.4908142l-27.254608 0l0 -8.535461l-22.601044 0l0 8.826782l-20.07611 0l0 8.24411l17.265076 0l0 -5.335968l3.6850586 0l8.125977 4.6929016l6.908142 0l7.4015503 -4.272949z" fill-rule="evenodd"/><path fill="#b4a7d6" d="m434.9685 287.29922l2.5223083 2.5223083l0 6.787384l-3.685028 0l0 -8.341187z" fill-rule="evenodd"/><path stroke="#000000" stroke-width="1.0" stroke-linejoin="round" stroke-linecap="butt" d="m434.9685 287.29922l2.5223083 2.5223083l0 6.787384l-3.685028 0l0 -8.341187z" fill-rule="evenodd"/><path fill="#fce5cd" d="m437.87927 297.28873l-7.7611694 0l0 52.86087l7.566925 0z" fill-rule="evenodd"/><path stroke="#000000" stroke-width="1.0" stroke-linejoin="round" stroke-linecap="butt" d="m437.87927 297.28873l-7.7611694 0l0 52.86087l7.566925 0z" fill-rule="evenodd"/><path fill="#fce5cd" d="m445.44357 349.85828l21.629913 0l0 -52.8609l-10.280823 0l0 -6.401581l-4.595825 2.653534l-6.94751 0z" fill-rule="evenodd"/><path stroke="#000000" stroke-width="1.0" stroke-linejoin="round" stroke-linecap="butt" d="m445.44357 349.85828l21.629913 0l0 -52.8609l-10.280823 0l0 -6.401581l-4.595825 2.653534l-6.94751 0z" fill-rule="evenodd"/><path fill="#b4a7d6" d="m457.56693 296.3176l0 -6.11026l3.4724426 -2.005249l2.2519836 0l0 8.115509z" fill-rule="evenodd"/><path stroke="#000000" stroke-width="1.0" stroke-linejoin="round" stroke-linecap="butt" d="m457.56693 296.3176l0 -6.11026l3.4724426 -2.005249l2.2519836 0l0 8.115509z" fill-rule="evenodd"/><path fill="#b4a7d6" d="m486.47244 288.1706l0 6.401581l1.8294067 3.1679688l4.669281 0l0 -9.56955z" fill-rule="evenodd"/><path stroke="#000000" stroke-width="1.0" stroke-linejoin="round" stroke-linecap="butt" d="m486.47244 288.1706l0 6.401581l1.8294067 3.1679688l4.669281 0l0 -9.56955z" fill-rule="evenodd"/><path fill="#fce5cd" d="m493.6509 288.0735l0 10.186371l-2.9107666 0l0 9.698151l2.2309875 3.8635254l27.448792 0l0 58.11548l21.241516 0l0 -58.391083l-6.595825 0l0 -11.249329l6.887146 0l0 -12.320221z" fill-rule="evenodd"/><path stroke="#000000" stroke-width="1.0" stroke-linejoin="round" stroke-linecap="butt" d="m493.6509 288.0735l0 10.186371l-2.9107666 0l0 9.698151l2.2309875 3.8635254l27.448792 0l0 58.11548l21.241516 0l0 -58.391083l-6.595825 0l0 -11.249329l6.887146 0l0 -12.320221z" fill-rule="evenodd"/><path fill="#b4a7d6" d="m535.8425 300.87665l0 10.089233l6.2073364 0l0 -9.89502z" fill-rule="evenodd"/><path stroke="#000000" stroke-width="1.0" stroke-linejoin="round" stroke-linecap="butt" d="m535.8425 300.87665l0 10.089233l6.2073364 0l0 -9.89502z" fill-rule="evenodd"/><path fill="#fce5cd" d="m541.66144 395.83466l0 -19.107635l-97.47772 0l-0.37268066 1.3884583l0 18.010498z" fill-rule="evenodd"/><path stroke="#000000" stroke-width="1.0" stroke-linejoin="round" stroke-linecap="butt" d="m541.66144 395.83466l0 -19.107635l-97.47772 0l-0.37268066 1.3884583l0 18.010498z" fill-rule="evenodd"/><path fill="#000000" fill-opacity="0.0" d="m338.4987 435.55905l8.629913 0" fill-rule="evenodd"/><path stroke="#000000" stroke-width="1.0" stroke-linejoin="round" stroke-linecap="butt" d="m338.4987 435.55905l8.629913 0" fill-rule="evenodd"/><path fill="#000000" fill-opacity="0.0" d="m329.69028 434.69553l0 -18.141724" fill-rule="evenodd"/><path stroke="#000000" stroke-width="1.0" stroke-linejoin="round" stroke-linecap="butt" d="m329.69028 434.69553l0 -18.141724" fill-rule="evenodd"/><path fill="#000000" fill-opacity="0.0" d="m329.34384 416.55905l17.795258 0" fill-rule="evenodd"/><path stroke="#000000" stroke-width="1.0" stroke-linejoin="round" stroke-linecap="butt" d="m329.34384 416.55905l17.795258 0" fill-rule="evenodd"/><path fill="#000000" fill-opacity="0.0" d="m330.03674 423.81366l-5.1968384 0" fill-rule="evenodd"/><path stroke="#000000" stroke-width="1.0" stroke-linejoin="round" stroke-linecap="butt" d="m330.03674 423.81366l-5.1968384 0" fill-rule="evenodd"/><path fill="#000000" fill-opacity="0.0" d="m331.24408 407.75067l-6.740143 0" fill-rule="evenodd"/><path stroke="#000000" stroke-width="1.0" stroke-linejoin="round" stroke-linecap="butt" d="m331.24408 407.75067l-6.740143 0" fill-rule="evenodd"/><path fill="#000000" fill-opacity="0.0" d="m331.41733 405.1601l0 2.7716675" fill-rule="evenodd"/><path stroke="#000000" stroke-width="1.0" stroke-linejoin="round" stroke-linecap="butt" d="m331.41733 405.1601l0 2.7716675" fill-rule="evenodd"/><path fill="#000000" fill-opacity="0.0" d="m318.8084 428.30447l-15.181122 0" fill-rule="evenodd"/><path stroke="#000000" stroke-width="1.0" stroke-linejoin="round" stroke-linecap="butt" d="m318.8084 428.30447l-15.181122 0" fill-rule="evenodd"/><path fill="#000000" fill-opacity="0.0" d="m318.98163 416.73227l-15.212585 0" fill-rule="evenodd"/><path stroke="#000000" stroke-width="1.0" stroke-linejoin="round" stroke-linecap="butt" d="m318.98163 416.73227l-15.212585 0" fill-rule="evenodd"/><path fill="#000000" fill-opacity="0.0" d="m319.84515 398.4252l-16.22049 0" fill-rule="evenodd"/><path stroke="#000000" stroke-width="1.0" stroke-linejoin="round" stroke-linecap="butt" d="m319.84515 398.4252l-16.22049 0" fill-rule="evenodd"/><path fill="#000000" fill-opacity="0.0" d="m324.5092 396.3517l0 -12.787415" fill-rule="evenodd"/><path stroke="#000000" stroke-width="1.0" stroke-linejoin="round" stroke-linecap="butt" d="m324.5092 396.3517l0 -12.787415" fill-rule="evenodd"/><path fill="#000000" fill-opacity="0.0" d="m331.59055 396.52493l0 -13.13385" fill-rule="evenodd"/><path stroke="#000000" stroke-width="1.0" stroke-linejoin="round" stroke-linecap="butt" d="m331.59055 396.52493l0 -13.13385" fill-rule="evenodd"/><path fill="#000000" fill-opacity="0.0" d="m337.8084 397.2152l0 -13.480316" fill-rule="evenodd"/><path stroke="#000000" stroke-width="1.0" stroke-linejoin="round" stroke-linecap="butt" d="m337.8084 397.2152l0 -13.480316" fill-rule="evenodd"/><path fill="#000000" fill-opacity="0.0" d="m345.06036 396.69815l0 -18.299194" fill-rule="evenodd"/><path stroke="#000000" stroke-width="1.0" stroke-linejoin="round" stroke-linecap="butt" d="m345.06036 396.69815l0 -18.299194" fill-rule="evenodd"/><path fill="#000000" fill-opacity="0.0" d="m385.99475 396.52493l0 -18.299225" fill-rule="evenodd"/><path stroke="#000000" stroke-width="1.0" stroke-linejoin="round" stroke-linecap="butt" d="m385.99475 396.52493l0 -18.299225" fill-rule="evenodd"/><path fill="#000000" fill-opacity="0.0" d="m412.2467 396.69815l0 -18.64566" fill-rule="evenodd"/><path stroke="#000000" stroke-width="1.0" stroke-linejoin="round" stroke-linecap="butt" d="m412.2467 396.69815l0 -18.64566" fill-rule="evenodd"/><path fill="#000000" fill-opacity="0.0" d="m411.3832 426.4042l-5.1653748 0" fill-rule="evenodd"/><path stroke="#000000" stroke-width="1.0" stroke-linejoin="round" stroke-linecap="butt" d="m411.3832 426.4042l-5.1653748 0" fill-rule="evenodd"/><path fill="#000000" fill-opacity="0.0" d="m418.6378 425.88715l0 -15.716553" fill-rule="evenodd"/><path stroke="#000000" stroke-width="1.0" stroke-linejoin="round" stroke-linecap="butt" d="m418.6378 425.88715l0 -15.716553" fill-rule="evenodd"/><path fill="#000000" fill-opacity="0.0" d="m438.15222 409.99738l-32.125977 0" fill-rule="evenodd"/><path stroke="#000000" stroke-width="1.0" stroke-linejoin="round" stroke-linecap="butt" d="m438.15222 409.99738l-32.125977 0" fill-rule="evenodd"/><path fill="#000000" fill-opacity="0.0" d="m417.2546 409.6509l0 -4.818878" fill-rule="evenodd"/><path stroke="#000000" stroke-width="1.0" stroke-linejoin="round" stroke-linecap="butt" d="m417.2546 409.6509l0 -4.818878" fill-rule="evenodd"/><path fill="#000000" fill-opacity="0.0" d="m399.98425 438.32022l0 5.0078735" fill-rule="evenodd"/><path stroke="#000000" stroke-width="1.0" stroke-linejoin="round" stroke-linecap="butt" d="m399.98425 438.32022l0 5.0078735" fill-rule="evenodd"/><path fill="#000000" fill-opacity="0.0" d="m410.17322 440.9134l0 4.3149414" fill-rule="evenodd"/><path stroke="#000000" stroke-width="1.0" stroke-linejoin="round" stroke-linecap="butt" d="m410.17322 440.9134l0 4.3149414" fill-rule="evenodd"/><path fill="#000000" fill-opacity="0.0" d="m419.5013 441.25723l0 4.1574707" fill-rule="evenodd"/><path stroke="#000000" stroke-width="1.0" stroke-linejoin="round" stroke-linecap="butt" d="m419.5013 441.25723l0 4.1574707" fill-rule="evenodd"/><path fill="#000000" fill-opacity="0.0" d="m438.15222 431.93176l0 9.322845" fill-rule="evenodd"/><path stroke="#000000" stroke-width="1.0" stroke-linejoin="round" stroke-linecap="butt" d="m438.15222 431.93176l0 9.322845" fill-rule="evenodd"/><path fill="#000000" fill-opacity="0.0" d="m444.3701 432.62204l0 8.472443" fill-rule="evenodd"/><path stroke="#000000" stroke-width="1.0" stroke-linejoin="round" stroke-linecap="butt" d="m444.3701 432.62204l0 8.472443" fill-rule="evenodd"/><path fill="#000000" fill-opacity="0.0" d="m449.89764 432.62204l0 8.472443" fill-rule="evenodd"/><path stroke="#000000" stroke-width="1.0" stroke-linejoin="round" stroke-linecap="butt" d="m449.89764 432.62204l0 8.472443" fill-rule="evenodd"/><path fill="#000000" fill-opacity="0.0" d="m454.38846 432.7953l0 7.936981" fill-rule="evenodd"/><path stroke="#000000" stroke-width="1.0" stroke-linejoin="round" stroke-linecap="butt" d="m454.38846 432.7953l0 7.936981" fill-rule="evenodd"/><path fill="#000000" fill-opacity="0.0" d="m459.74277 432.44882l0 8.629913" fill-rule="evenodd"/><path stroke="#000000" stroke-width="1.0" stroke-linejoin="round" stroke-linecap="butt" d="m459.74277 432.44882l0 8.629913" fill-rule="evenodd"/><path fill="#000000" fill-opacity="0.0" d="m452.4882 403.77954l0 6.047241" fill-rule="evenodd"/><path stroke="#000000" stroke-width="1.0" stroke-linejoin="round" stroke-linecap="butt" d="m452.4882 403.77954l0 6.047241" fill-rule="evenodd"/><path fill="#000000" fill-opacity="0.0" d="m455.5958 403.95276l0 5.700775" fill-rule="evenodd"/><path stroke="#000000" stroke-width="1.0" stroke-linejoin="round" stroke-linecap="butt" d="m455.5958 403.95276l0 5.700775" fill-rule="evenodd"/><path fill="#000000" fill-opacity="0.0" d="m460.0866 409.99738l-13.13385 0" fill-rule="evenodd"/><path stroke="#000000" stroke-width="1.0" stroke-linejoin="round" stroke-linecap="butt" d="m460.0866 409.99738l-13.13385 0" fill-rule="evenodd"/><path fill="#000000" fill-opacity="0.0" d="m467.16797 409.6509l0 6.551178" fill-rule="evenodd"/><path stroke="#000000" stroke-width="1.0" stroke-linejoin="round" stroke-linecap="butt" d="m467.16797 409.6509l0 6.551178" fill-rule="evenodd"/><path fill="#000000" fill-opacity="0.0" d="m492.72964 416.55905l0 -7.7795105" fill-rule="evenodd"/><path stroke="#000000" stroke-width="1.0" stroke-linejoin="round" stroke-linecap="butt" d="m492.72964 416.55905l0 -7.7795105" fill-rule="evenodd"/><path fill="#000000" fill-opacity="0.0" d="m492.9029 408.96063l4.3149414 0" fill-rule="evenodd"/><path stroke="#000000" stroke-width="1.0" stroke-linejoin="round" stroke-linecap="butt" d="m492.9029 408.96063l4.3149414 0" fill-rule="evenodd"/><path fill="#000000" fill-opacity="0.0" d="m497.3937 403.6063l0 5.7008057" fill-rule="evenodd"/><path stroke="#000000" stroke-width="1.0" stroke-linejoin="round" stroke-linecap="butt" d="m497.3937 403.6063l0 5.7008057" fill-rule="evenodd"/><path fill="#000000" fill-opacity="0.0" d="m501.1916 404.12335l0 5.5433044" fill-rule="evenodd"/><path stroke="#000000" stroke-width="1.0" stroke-linejoin="round" stroke-linecap="butt" d="m501.1916 404.12335l0 5.5433044" fill-rule="evenodd"/><path fill="#000000" fill-opacity="0.0" d="m501.36484 409.6509l3.6220398 0" fill-rule="evenodd"/><path stroke="#000000" stroke-width="1.0" stroke-linejoin="round" stroke-linecap="butt" d="m501.36484 409.6509l3.6220398 0" fill-rule="evenodd"/><path fill="#000000" fill-opacity="0.0" d="m504.99213 409.6509l0 6.2047424" fill-rule="evenodd"/><path stroke="#000000" stroke-width="1.0" stroke-linejoin="round" stroke-linecap="butt" d="m504.99213 409.6509l0 6.2047424" fill-rule="evenodd"/><path fill="#000000" fill-opacity="0.0" d="m517.7743 404.12335l0 11.5590515" fill-rule="evenodd"/><path stroke="#000000" stroke-width="1.0" stroke-linejoin="round" stroke-linecap="butt" d="m517.7743 404.12335l0 11.5590515" fill-rule="evenodd"/><path fill="#000000" fill-opacity="0.0" d="m530.38055 403.95276l0 12.4409485" fill-rule="evenodd"/><path stroke="#000000" stroke-width="1.0" stroke-linejoin="round" stroke-linecap="butt" d="m530.38055 403.95276l0 12.4409485" fill-rule="evenodd"/><path fill="#000000" fill-opacity="0.0" d="m461.46982 396.1811l0 -8.283447" fill-rule="evenodd"/><path stroke="#000000" stroke-width="1.0" stroke-linejoin="round" stroke-linecap="butt" d="m461.46982 396.1811l0 -8.283447" fill-rule="evenodd"/><path fill="#000000" fill-opacity="0.0" d="m461.46982 388.063l7.7795105 0" fill-rule="evenodd"/><path stroke="#000000" stroke-width="1.0" stroke-linejoin="round" stroke-linecap="butt" d="m461.46982 388.063l7.7795105 0" fill-rule="evenodd"/><path fill="#000000" fill-opacity="0.0" d="m469.06824 396.3517l0 -19.685059" fill-rule="evenodd"/><path stroke="#000000" stroke-width="1.0" stroke-linejoin="round" stroke-linecap="butt" d="m469.06824 396.3517l0 -19.685059" fill-rule="evenodd"/><path fill="#000000" fill-opacity="0.0" d="m493.2467 396.3517l0 -19.527557" fill-rule="evenodd"/><path stroke="#000000" stroke-width="1.0" stroke-linejoin="round" stroke-linecap="butt" d="m493.2467 396.3517l0 -19.527557" fill-rule="evenodd"/><path fill="#000000" fill-opacity="0.0" d="m504.99213 396.3517l0 -19.527557" fill-rule="evenodd"/><path stroke="#000000" stroke-width="1.0" stroke-linejoin="round" stroke-linecap="butt" d="m504.99213 396.3517l0 -19.527557" fill-rule="evenodd"/><path fill="#000000" fill-opacity="0.0" d="m517.4278 396.1811l0 -4.1574707" fill-rule="evenodd"/><path stroke="#000000" stroke-width="1.0" stroke-linejoin="round" stroke-linecap="butt" d="m517.4278 396.1811l0 -4.1574707" fill-rule="evenodd"/><path fill="#000000" fill-opacity="0.0" d="m542.126 392.20734l-24.346436 0" fill-rule="evenodd"/><path stroke="#000000" stroke-width="1.0" stroke-linejoin="round" stroke-linecap="butt" d="m542.126 392.20734l-24.346436 0" fill-rule="evenodd"/><path fill="#000000" fill-opacity="0.0" d="m549.7244 349.8924l6.7401123 0" fill-rule="evenodd"/><path stroke="#000000" stroke-width="1.0" stroke-linejoin="round" stroke-linecap="butt" d="m549.7244 349.8924l6.7401123 0" fill-rule="evenodd"/><path fill="#000000" fill-opacity="0.0" d="m550.07086 343.15747l6.204712 0" fill-rule="evenodd"/><path stroke="#000000" stroke-width="1.0" stroke-linejoin="round" stroke-linecap="butt" d="m550.07086 343.15747l6.204712 0" fill-rule="evenodd"/><path fill="#000000" fill-opacity="0.0" d="m550.07086 336.59317l6.204712 0" fill-rule="evenodd"/><path stroke="#000000" stroke-width="1.0" stroke-linejoin="round" stroke-linecap="butt" d="m550.07086 336.59317l6.204712 0" fill-rule="evenodd"/><path fill="#000000" fill-opacity="0.0" d="m550.07086 330.0315l6.204712 0" fill-rule="evenodd"/><path stroke="#000000" stroke-width="1.0" stroke-linejoin="round" stroke-linecap="butt" d="m550.07086 330.0315l6.204712 0" fill-rule="evenodd"/><path fill="#000000" fill-opacity="0.0" d="m550.07086 323.81366l6.204712 0" fill-rule="evenodd"/><path stroke="#000000" stroke-width="1.0" stroke-linejoin="round" stroke-linecap="butt" d="m550.07086 323.81366l6.204712 0" fill-rule="evenodd"/><path fill="#000000" fill-opacity="0.0" d="m550.07086 316.90552l6.204712 0" fill-rule="evenodd"/><path stroke="#000000" stroke-width="1.0" stroke-linejoin="round" stroke-linecap="butt" d="m550.07086 316.90552l6.204712 0" fill-rule="evenodd"/><path fill="#000000" fill-opacity="0.0" d="m550.07086 310.68765l10.204712 0" fill-rule="evenodd"/><path stroke="#000000" stroke-width="1.0" stroke-linejoin="round" stroke-linecap="butt" d="m550.07086 310.68765l10.204712 0" fill-rule="evenodd"/><path fill="#000000" fill-opacity="0.0" d="m550.07086 298.07874l14.519714 0" fill-rule="evenodd"/><path stroke="#000000" stroke-width="1.0" stroke-linejoin="round" stroke-linecap="butt" d="m550.07086 298.07874l14.519714 0" fill-rule="evenodd"/><path fill="#000000" fill-opacity="0.0" d="m564.4042 288.2362l0 23.149628" fill-rule="evenodd"/><path stroke="#000000" stroke-width="1.0" stroke-linejoin="round" stroke-linecap="butt" d="m564.4042 288.2362l0 23.149628" fill-rule="evenodd"/><path fill="#000000" fill-opacity="0.0" d="m583.05774 287.88977l0 9.322815" fill-rule="evenodd"/><path stroke="#000000" stroke-width="1.0" stroke-linejoin="round" stroke-linecap="butt" d="m583.05774 287.88977l0 9.322815" fill-rule="evenodd"/><path fill="#000000" fill-opacity="0.0" d="m583.05774 297.04462l3.8110352 0" fill-rule="evenodd"/><path stroke="#000000" stroke-width="1.0" stroke-linejoin="round" stroke-linecap="butt" d="m583.05774 297.04462l3.8110352 0" fill-rule="evenodd"/><path fill="#000000" fill-opacity="0.0" d="m581.1575 288.2362l2.236206 0" fill-rule="evenodd"/><path stroke="#000000" stroke-width="1.0" stroke-linejoin="round" stroke-linecap="butt" d="m581.1575 288.2362l2.236206 0" fill-rule="evenodd"/><path fill="#000000" fill-opacity="0.0" d="m581.6772 282.70865l1.7322388 0" fill-rule="evenodd"/><path stroke="#000000" stroke-width="1.0" stroke-linejoin="round" stroke-linecap="butt" d="m581.6772 282.70865l1.7322388 0" fill-rule="evenodd"/><path fill="#000000" fill-opacity="0.0" d="m558.35956 282.3622l0 -6.3937073" fill-rule="evenodd"/><path stroke="#000000" stroke-width="1.0" stroke-linejoin="round" stroke-linecap="butt" d="m558.35956 282.3622l0 -6.3937073" fill-rule="evenodd"/><path fill="#000000" fill-opacity="0.0" d="m552.1417 282.53543l0 -7.433075" fill-rule="evenodd"/><path stroke="#000000" stroke-width="1.0" stroke-linejoin="round" stroke-linecap="butt" d="m552.1417 282.53543l0 -7.433075" fill-rule="evenodd"/><path fill="#000000" fill-opacity="0.0" d="m546.0971 282.53543l0 -10.015747" fill-rule="evenodd"/><path stroke="#000000" stroke-width="1.0" stroke-linejoin="round" stroke-linecap="butt" d="m546.0971 282.53543l0 -10.015747" fill-rule="evenodd"/><path fill="#000000" fill-opacity="0.0" d="m541.77954 348.68503l-21.259827 0" fill-rule="evenodd"/><path stroke="#000000" stroke-width="1.0" stroke-linejoin="round" stroke-linecap="butt" d="m541.77954 348.68503l-21.259827 0" fill-rule="evenodd"/><path fill="#000000" fill-opacity="0.0" d="m542.2992 331.75854l-21.574768 0" fill-rule="evenodd"/><path stroke="#000000" stroke-width="1.0" stroke-linejoin="round" stroke-linecap="butt" d="m542.2992 331.75854l-21.574768 0" fill-rule="evenodd"/><path fill="#000000" fill-opacity="0.0" d="m542.126 317.25198l-21.417297 0" fill-rule="evenodd"/><path stroke="#000000" stroke-width="1.0" stroke-linejoin="round" stroke-linecap="butt" d="m542.126 317.25198l-21.417297 0" fill-rule="evenodd"/><path fill="#000000" fill-opacity="0.0" d="m499.29398 287.88977l0 24.0" fill-rule="evenodd"/><path stroke="#000000" stroke-width="1.0" stroke-linejoin="round" stroke-linecap="butt" d="m499.29398 287.88977l0 24.0" fill-rule="evenodd"/><path fill="#000000" fill-opacity="0.0" d="m520.53546 288.063l0 23.84253" fill-rule="evenodd"/><path stroke="#000000" stroke-width="1.0" stroke-linejoin="round" stroke-linecap="butt" d="m520.53546 288.063l0 23.84253" fill-rule="evenodd"/><path fill="#000000" fill-opacity="0.0" d="m535.90814 301.01575l0 -12.944885" fill-rule="evenodd"/><path stroke="#000000" stroke-width="1.0" stroke-linejoin="round" stroke-linecap="butt" d="m535.90814 301.01575l0 -12.944885" fill-rule="evenodd"/><path fill="#000000" fill-opacity="0.0" d="m542.4698 293.76117l-6.3936768 0" fill-rule="evenodd"/><path stroke="#000000" stroke-width="1.0" stroke-linejoin="round" stroke-linecap="butt" d="m542.4698 293.76117l-6.3936768 0" fill-rule="evenodd"/><path fill="#000000" fill-opacity="0.0" d="m542.2992 297.2152l-6.047241 0" fill-rule="evenodd"/><path stroke="#000000" stroke-width="1.0" stroke-linejoin="round" stroke-linecap="butt" d="m542.2992 297.2152l-6.047241 0" fill-rule="evenodd"/><path fill="#000000" fill-opacity="0.0" d="m467.34122 283.0525l0 -4.1574707" fill-rule="evenodd"/><path stroke="#000000" stroke-width="1.0" stroke-linejoin="round" stroke-linecap="butt" d="m467.34122 283.0525l0 -4.1574707" fill-rule="evenodd"/><path fill="#000000" fill-opacity="0.0" d="m459.74277 283.2257l0 -4.503937" fill-rule="evenodd"/><path stroke="#000000" stroke-width="1.0" stroke-linejoin="round" stroke-linecap="butt" d="m459.74277 283.2257l0 -4.503937" fill-rule="evenodd"/><path fill="#000000" fill-opacity="0.0" d="m450.24408 293.24408l0 3.6220703" fill-rule="evenodd"/><path stroke="#000000" stroke-width="1.0" stroke-linejoin="round" stroke-linecap="butt" d="m450.24408 293.24408l0 3.6220703" fill-rule="evenodd"/><path fill="#000000" fill-opacity="0.0" d="m457.66928 296.8714l-12.251953 0" fill-rule="evenodd"/><path stroke="#000000" stroke-width="1.0" stroke-linejoin="round" stroke-linecap="butt" d="m457.66928 296.8714l-12.251953 0" fill-rule="evenodd"/><path fill="#000000" fill-opacity="0.0" d="m467.51443 323.81366l-22.11023 0" fill-rule="evenodd"/><path stroke="#000000" stroke-width="1.0" stroke-linejoin="round" stroke-linecap="butt" d="m467.51443 323.81366l-22.11023 0" fill-rule="evenodd"/><path fill="#000000" fill-opacity="0.0" d="m437.979 342.4672l-7.5905457 0" fill-rule="evenodd"/><path stroke="#000000" stroke-width="1.0" stroke-linejoin="round" stroke-linecap="butt" d="m437.979 342.4672l-7.5905457 0" fill-rule="evenodd"/><path fill="#000000" fill-opacity="0.0" d="m438.15222 334.86615l-7.7795105 0" fill-rule="evenodd"/><path stroke="#000000" stroke-width="1.0" stroke-linejoin="round" stroke-linecap="butt" d="m438.15222 334.86615l-7.7795105 0" fill-rule="evenodd"/><path fill="#000000" fill-opacity="0.0" d="m438.15222 327.61417l-7.5905457 0" fill-rule="evenodd"/><path stroke="#000000" stroke-width="1.0" stroke-linejoin="round" stroke-linecap="butt" d="m438.15222 327.61417l-7.5905457 0" fill-rule="evenodd"/><path fill="#000000" fill-opacity="0.0" d="m438.15222 319.84253l-7.433075 0" fill-rule="evenodd"/><path stroke="#000000" stroke-width="1.0" stroke-linejoin="round" stroke-linecap="butt" d="m438.15222 319.84253l-7.433075 0" fill-rule="evenodd"/><path fill="#000000" fill-opacity="0.0" d="m437.8084 312.4147l-7.433075 0" fill-rule="evenodd"/><path stroke="#000000" stroke-width="1.0" stroke-linejoin="round" stroke-linecap="butt" d="m437.8084 312.4147l-7.433075 0" fill-rule="evenodd"/><path fill="#000000" fill-opacity="0.0" d="m437.979 304.81628l-7.779541 0" fill-rule="evenodd"/><path stroke="#000000" stroke-width="1.0" stroke-linejoin="round" stroke-linecap="butt" d="m437.979 304.81628l-7.779541 0" fill-rule="evenodd"/><path fill="#000000" fill-opacity="0.0" d="m499.6378 282.53543l0 -7.7795105" fill-rule="evenodd"/><path stroke="#000000" stroke-width="1.0" stroke-linejoin="round" stroke-linecap="butt" d="m499.6378 282.53543l0 -7.7795105" fill-rule="evenodd"/><path fill="#000000" fill-opacity="0.0" d="m506.2021 282.70865l0 -7.7795105" fill-rule="evenodd"/><path stroke="#000000" stroke-width="1.0" stroke-linejoin="round" stroke-linecap="butt" d="m506.2021 282.70865l0 -7.7795105" fill-rule="evenodd"/><path fill="#000000" fill-opacity="0.0" d="m512.2467 282.53543l0 -7.5905457" fill-rule="evenodd"/><path stroke="#000000" stroke-width="1.0" stroke-linejoin="round" stroke-linecap="butt" d="m512.2467 282.53543l0 -7.5905457" fill-rule="evenodd"/><path fill="#000000" fill-opacity="0.0" d="m518.8084 282.53543l0 -7.7795105" fill-rule="evenodd"/><path stroke="#000000" stroke-width="1.0" stroke-linejoin="round" stroke-linecap="butt" d="m518.8084 282.53543l0 -7.7795105" fill-rule="evenodd"/><path fill="#000000" fill-opacity="0.0" d="m531.7743 273.1942l0 9.133881" fill-rule="evenodd"/><path stroke="#000000" stroke-width="1.0" stroke-linejoin="round" stroke-linecap="butt" d="m531.7743 273.1942l0 9.133881" fill-rule="evenodd"/></g></svg>