<svg version="1.1" viewBox="0.0 0.0 960.0 720.0" fill="none" stroke="none" stroke-linecap="square" stroke-miterlimit="10" xmlns:xlink="http://www.w3.org/1999/xlink" xmlns="http://www.w3.org/2000/svg"><clipPath id="p.0"><path d="m0 0l960.0 0l0 720.0l-960.0 0l0 -720.0z" clip-rule="nonzero"/></clipPath><g clip-path="url(#p.0)"><path fill="#000000" fill-opacity="0.0" d="m0 0l960.0 0l0 720.0l-960.0 0z" fill-rule="evenodd"/><path fill="#cfe2f3" d="m444.83728 354.20734l-5.0971375 0l0 -59.21521l-2.679779 -2.679779l-4.3805847 0l0 -4.640442l8.105011 0l4.577423 4.577423l6.272949 0l4.968506 -4.9684753l9.934387 0l0 -2.3543396l19.868774 0l0 3.792633l93.07083 0l0 6.0131226l-33.07086 0l0 104.96588l76.2074 0l0 -45.228333l5.359558 0l0 45.35959l6.0131226 0l0 6.404175l-84.706055 0l0 30.719177l-13.724365 0l0 -31.11023l-95.55646 0l0 -1.5695496l-32.67978 0l0 5.7532654l-2.8609009 4.9553833l0 17.005249l2.9921265 0l0 -2.4829407l3.3989563 0l0 -3.2703552l10.196838 0l0 8.629944l-20.0 0l0 -24.706055l-3.6614075 0l0 -10.719147l143.92123 0l0 -104.83728l-49.409424 0l-3.341217 -1.9291382l-28.816284 0l-5.1469727 5.147003l-9.624664 0z" fill-rule="evenodd"/><path stroke="#000000" stroke-width="1.0" stroke-linejoin="round" stroke-linecap="butt" d="m444.83728 354.20734l-5.0971375 0l0 -59.21521l-2.679779 -2.679779l-4.3805847 0l0 -4.640442l8.105011 0l4.577423 4.577423l6.272949 0l4.968506 -4.9684753l9.934387 0l0 -2.3543396l19.868774 0l0 3.792633l93.07083 0l0 6.0131226l-33.07086 0l0 104.96588l76.2074 0l0 -45.228333l5.359558 0l0 45.35959l6.0131226 0l0 6.404175l-84.706055 0l0 30.719177l-13.724365 0l0 -31.11023l-95.55646 0l0 -1.5695496l-32.67978 0l0 5.7532654l-2.8609009 4.9553833l0 17.005249l2.9921265 0l0 -2.4829407l3.3989563 0l0 -3.2703552l10.196838 0l0 8.629944l-20.0 0l0 -24.706055l-3.6614075 0l0 -10.719147l143.92123 0l0 -104.83728l-49.409424 0l-3.341217 -1.9291382l-28.816284 0l-5.1469727 5.147003l-9.624664 0z" fill-rule="evenodd"/><path fill="#fce5cd" d="m439.4777 345.97375l-9.280853 0l0 -44.443573l9.020996 0z" fill-rule="evenodd"/><path stroke="#000000" stroke-width="1.0" stroke-linejoin="round" stroke-linecap="butt" d="m439.4777 345.97375l-9.280853 0l0 -44.443573l9.020996 0z" fill-rule="evenodd"/><path fill="#fce5cd" d="m432.28873 292.5092l-14.902893 0l0 -8.627289l19.871399 0l0 -8.758545l22.614166 0l0 8.8897705l6.272949 0l0 2.8740234l-9.934387 0l-4.706024 4.706024l-5.750641 0l-4.7060547 -4.706024l-8.8897705 0z" fill-rule="evenodd"/><path stroke="#000000" stroke-width="1.0" stroke-linejoin="round" stroke-linecap="butt" d="m432.28873 292.5092l-14.902893 0l0 -8.627289l19.871399 0l0 -8.758545l22.614166 0l0 8.8897705l6.272949 0l0 2.8740234l-9.934387 0l-4.706024 4.706024l-5.750641 0l-4.7060547 -4.706024l-8.8897705 0z" fill-rule="evenodd"/><path fill="#fce5cd" d="m492.55118 288.19684l0 -5.359558l1.5249329 -2.640442l29.194214 0l0 8.0z" fill-rule="evenodd"/><path stroke="#000000" stroke-width="1.0" stroke-linejoin="round" stroke-linecap="butt" d="m492.55118 288.19684l0 -5.359558l1.5249329 -2.640442l29.194214 0l0 8.0z" fill-rule="evenodd"/><path fill="#fce5cd" d="m538.43304 288.32547l0 -10.32547l0.6168213 -2.3018494l4.34906 0l1.5827026 2.7401733l3.908142 0l2.3306885 2.330719l28.65094 0l1.9028931 3.2965698l0 5.1758423l4.1102295 0l1.9055176 3.2992249l0 8.464569l-1.3884888 2.4068298l-2.2178345 0l0 10.404205l-1.8162842 3.1443481l-28.118103 0l0 57.118103l-7.0577393 0l0 -78.6929l33.07086 0l0 -7.1889954z" fill-rule="evenodd"/><path stroke="#000000" stroke-width="1.0" stroke-linejoin="round" stroke-linecap="butt" d="m538.43304 288.32547l0 -10.32547l0.6168213 -2.3018494l4.34906 0l1.5827026 2.7401733l3.908142 0l2.3306885 2.330719l28.65094 0l1.9028931 3.2965698l0 5.1758423l4.1102295 0l1.9055176 3.2992249l0 8.464569l-1.3884888 2.4068298l-2.2178345 0l0 10.404205l-1.8162842 3.1443481l-28.118103 0l0 57.118103l-7.0577393 0l0 -78.6929l33.07086 0l0 -7.1889954z" fill-rule="evenodd"/><path fill="#fce5cd" d="m445.4908 354.3386l0 -56.078735l9.803162 0l1.4382935 -1.438324l0 4.8372498l9.934387 0l0 52.288727z" fill-rule="evenodd"/><path stroke="#000000" stroke-width="1.0" stroke-linejoin="round" stroke-linecap="butt" d="m445.4908 354.3386l0 -56.078735l9.803162 0l1.4382935 -1.438324l0 4.8372498l9.934387 0l0 52.288727z" fill-rule="evenodd"/><path fill="#fce5cd" d="m492.15747 295.2546l0 7.188965l-1.9606323 0l0 10.850403l1.994751 3.4540405l27.939636 0l0 57.068268l20.78479 0l0 -57.25461l-6.7979126 0l0 -10.587921l6.7979126 0l0 -10.587921z" fill-rule="evenodd"/><path stroke="#000000" stroke-width="1.0" stroke-linejoin="round" stroke-linecap="butt" d="m492.15747 295.2546l0 7.188965l-1.9606323 0l0 10.850403l1.994751 3.4540405l27.939636 0l0 57.068268l20.78479 0l0 -57.25461l-6.7979126 0l0 -10.587921l6.7979126 0l0 -10.587921z" fill-rule="evenodd"/><path fill="#fce5cd" d="m540.7848 399.04462l0 -18.561676l-153.20212 0l0 18.43045z" fill-rule="evenodd"/><path stroke="#000000" stroke-width="1.0" stroke-linejoin="round" stroke-linecap="butt" d="m540.7848 399.04462l0 -18.561676l-153.20212 0l0 18.43045z" fill-rule="evenodd"/><path fill="#fce5cd" d="m387.1916 379.96063l0 26.144348l-37.77951 0l0 36.601044l-25.881897 0l0 -8.758514l-16.20996 0l0 -49.543304l33.073486 0l0 4.706024l6.6666565 0l0 -9.149597z" fill-rule="evenodd"/><path stroke="#000000" stroke-width="1.0" stroke-linejoin="round" stroke-linecap="butt" d="m387.1916 379.96063l0 26.144348l-37.77951 0l0 36.601044l-25.881897 0l0 -8.758514l-16.20996 0l0 -49.543304l33.073486 0l0 4.706024l6.6666565 0l0 -9.149597z" fill-rule="evenodd"/><path fill="#fce5cd" d="m397.12598 405.05774l-8.8897705 0l0 2.091858l-1.5695496 0l0 21.307098l9.805786 0l0 6.2755737l4.1810913 0l0 -23.530182l-3.7900085 0z" fill-rule="evenodd"/><path stroke="#000000" stroke-width="1.0" stroke-linejoin="round" stroke-linecap="butt" d="m397.12598 405.05774l-8.8897705 0l0 2.091858l-1.5695496 0l0 21.307098l9.805786 0l0 6.2755737l4.1810913 0l0 -23.530182l-3.7900085 0z" fill-rule="evenodd"/><path fill="#fce5cd" d="m401.56955 435.38583l0 7.4514465l4.1837463 0l0.5328064 1.9921265l14.238831 0l0.37008667 -1.3805847l18.713898 0l0 -2.1810913l27.451447 0l0 -23.007874l43.53018 0l17.963287 -0.23098755l0 -2.3989563l6.897583 0.29922485l-0.45141602 21.590546l6.7008057 0.08660889l-6.7979126 0l0 -21.960632l-6.404236 0l0 -9.018372l-64.70599 0l0 5.490814l-8.758545 0l0 -5.62204l-15.687653 0l0 -1.6981506l-31.241486 0l0 5.6194153l-2.75589 4.7742615l0 16.27298l1.7112732 0l0 -2.3543396l3.3989563 0l0 -3.2677002l11.372711 0l0 9.934387z" fill-rule="evenodd"/><path stroke="#000000" stroke-width="1.0" stroke-linejoin="round" stroke-linecap="butt" d="m401.56955 435.38583l0 7.4514465l4.1837463 0l0.5328064 1.9921265l14.238831 0l0.37008667 -1.3805847l18.713898 0l0 -2.1810913l27.451447 0l0 -23.007874l43.53018 0l17.963287 -0.23098755l0 -2.3989563l6.897583 0.29922485l-0.45141602 21.590546l6.7008057 0.08660889l-6.7979126 0l0 -21.960632l-6.404236 0l0 -9.018372l-64.70599 0l0 5.490814l-8.758545 0l0 -5.62204l-15.687653 0l0 -1.6981506l-31.241486 0l0 5.6194153l-2.75589 4.7742615l0 16.27298l1.7112732 0l0 -2.3543396l3.3989563 0l0 -3.2677002l11.372711 0l0 9.934387z" fill-rule="evenodd"/><path fill="#fce5cd" d="m546.0131 443.8819l0 -6.2756042l3.9238892 0l0 -30.719147l40.391052 0l0 37.125977z" fill-rule="evenodd"/><path stroke="#000000" stroke-width="1.0" stroke-linejoin="round" stroke-linecap="butt" d="m546.0131 443.8819l0 -6.2756042l3.9238892 0l0 -30.719147l40.391052 0l0 37.125977z" fill-rule="evenodd"/><path fill="#b4a7d6" d="m591.3727 444.01312l0 -36.99475l30.328125 0l0 5.881897l5.4907837 0l0 6.0131226l7.188965 0l0 -38.561676l-6.0131226 0l0 -25.48819l21.307129 0l0 24.965881l3.005249 0l0 64.44357z" fill-rule="evenodd"/><path stroke="#000000" stroke-width="1.0" stroke-linejoin="round" stroke-linecap="butt" d="m591.3727 444.01312l0 -36.99475l30.328125 0l0 5.881897l5.4907837 0l0 6.0131226l7.188965 0l0 -38.561676l-6.0131226 0l0 -25.48819l21.307129 0l0 24.965881l3.005249 0l0 64.44357z" fill-rule="evenodd"/><path fill="#fce5cd" d="m633.46454 393.16272l-4.837219 0l0 -11.894989l5.0997314 0z" fill-rule="evenodd"/><path stroke="#000000" stroke-width="1.0" stroke-linejoin="round" stroke-linecap="butt" d="m633.46454 393.16272l-4.837219 0l0 -11.894989l5.0997314 0z" fill-rule="evenodd"/><path fill="#fce5cd" d="m622.09186 354.60104l-7.188965 0l0 25.881897l-67.5827 0l0 18.692902l75.03412 0z" fill-rule="evenodd"/><path stroke="#000000" stroke-width="1.0" stroke-linejoin="round" stroke-linecap="butt" d="m622.09186 354.60104l-7.188965 0l0 25.881897l-67.5827 0l0 18.692902l75.03412 0z" fill-rule="evenodd"/><path fill="#b4a7d6" d="m396.99475 404.53543l0 -5.2283325l-9.149597 0l0 5.2283325z" fill-rule="evenodd"/><path stroke="#000000" stroke-width="1.0" stroke-linejoin="round" stroke-linecap="butt" d="m396.99475 404.53543l0 -5.2283325l-9.149597 0l0 5.2283325z" fill-rule="evenodd"/><path fill="#b4a7d6" d="m387.84515 428.979l0 13.595795l13.202087 0l0 -7.188965l-5.0997314 -0.13122559l-0.12860107 -6.013153z" fill-rule="evenodd"/><path stroke="#000000" stroke-width="1.0" stroke-linejoin="round" stroke-linecap="butt" d="m387.84515 428.979l0 13.595795l13.202087 0l0 -7.188965l-5.0997314 -0.13122559l-0.12860107 -6.013153z" fill-rule="evenodd"/><path fill="#b4a7d6" d="m455.55643 406.36484l0 5.2283325l7.713928 0l0 -5.2283325z" fill-rule="evenodd"/><path stroke="#000000" stroke-width="1.0" stroke-linejoin="round" stroke-linecap="butt" d="m455.55643 406.36484l0 5.2283325l7.713928 0l0 -5.2283325z" fill-rule="evenodd"/><path fill="#b4a7d6" d="m529.1522 406.23358l0 8.758545l5.881897 0l0 -8.758545z" fill-rule="evenodd"/><path stroke="#000000" stroke-width="1.0" stroke-linejoin="round" stroke-linecap="butt" d="m529.1522 406.23358l0 8.758545l5.881897 0l0 -8.758545z" fill-rule="evenodd"/><path fill="#b4a7d6" d="m542.3543 443.61942l0 -6.1417236l3.2677612 0l0 6.4042053z" fill-rule="evenodd"/><path stroke="#000000" stroke-width="1.0" stroke-linejoin="round" stroke-linecap="butt" d="m542.3543 443.61942l0 -6.1417236l3.2677612 0l0 6.4042053z" fill-rule="evenodd"/><path fill="#b4a7d6" d="m622.2231 412.37796l0 -5.6194153l4.968506 0l0 5.750641z" fill-rule="evenodd"/><path stroke="#000000" stroke-width="1.0" stroke-linejoin="round" stroke-linecap="butt" d="m622.2231 412.37796l0 -5.6194153l4.968506 0l0 5.750641z" fill-rule="evenodd"/><path fill="#b4a7d6" d="m627.84515 418.39108l0 -11.632538l5.881897 0l0 11.501312z" fill-rule="evenodd"/><path stroke="#000000" stroke-width="1.0" stroke-linejoin="round" stroke-linecap="butt" d="m627.84515 418.39108l0 -11.632538l5.881897 0l0 11.501312z" fill-rule="evenodd"/><path fill="#b4a7d6" d="m628.6273 399.3071l0 -5.6220703l5.359558 0l0 5.6220703z" fill-rule="evenodd"/><path stroke="#000000" stroke-width="1.0" stroke-linejoin="round" stroke-linecap="butt" d="m628.6273 399.3071l0 -5.6220703l5.359558 0l0 5.6220703z" fill-rule="evenodd"/><path fill="#000000" fill-opacity="0.0" d="m631.2441 393.68503l0 5.8897705" fill-rule="evenodd"/><path stroke="#000000" stroke-width="1.0" stroke-linejoin="round" stroke-linecap="butt" d="m631.2441 393.68503l0 5.8897705" fill-rule="evenodd"/><path fill="#b4a7d6" d="m540.916 315.90814l0 -9.280853l-6.404175 0l0 9.280853z" fill-rule="evenodd"/><path stroke="#000000" stroke-width="1.0" stroke-linejoin="round" stroke-linecap="butt" d="m540.916 315.90814l0 -9.280853l-6.404175 0l0 9.280853z" fill-rule="evenodd"/><path fill="#b4a7d6" d="m538.43304 288.0656l0 -9.280823l-12.942261 0l-1.6981201 1.6981506l0 7.582672z" fill-rule="evenodd"/><path stroke="#000000" stroke-width="1.0" stroke-linejoin="round" stroke-linecap="butt" d="m538.43304 288.0656l0 -9.280823l-12.942261 0l-1.6981201 1.6981506l0 7.582672z" fill-rule="evenodd"/><path fill="#b4a7d6" d="m491.76642 295.38583l-3.3175964 -1.9160156l-2.3044739 0l0 6.097107l1.5800476 2.7375488l4.1732483 0z" fill-rule="evenodd"/><path stroke="#000000" stroke-width="1.0" stroke-linejoin="round" stroke-linecap="butt" d="m491.76642 295.38583l-3.3175964 -1.9160156l-2.3044739 0l0 6.097107l1.5800476 2.7375488l4.1732483 0z" fill-rule="evenodd"/><path fill="#b4a7d6" d="m462.61417 301.13647l0 -7.711273l-2.4829407 0l-2.9396362 2.9396362l0 4.6404114z" fill-rule="evenodd"/><path stroke="#000000" stroke-width="1.0" stroke-linejoin="round" stroke-linecap="butt" d="m462.61417 301.13647l0 -7.711273l-2.4829407 0l-2.9396362 2.9396362l0 4.6404114z" fill-rule="evenodd"/><path fill="#b4a7d6" d="m439.21783 300.87402l0 -5.4881897l-2.4172974 -2.417328l-2.682434 0l0 7.9055176z" fill-rule="evenodd"/><path stroke="#000000" stroke-width="1.0" stroke-linejoin="round" stroke-linecap="butt" d="m439.21783 300.87402l0 -5.4881897l-2.4172974 -2.417328l-2.682434 0l0 7.9055176z" fill-rule="evenodd"/><path fill="#b4a7d6" d="m439.21783 346.6273l-8.758514 0l0 7.0577393l8.887146 0z" fill-rule="evenodd"/><path stroke="#000000" stroke-width="1.0" stroke-linejoin="round" stroke-linecap="butt" d="m439.21783 346.6273l-8.758514 0l0 7.0577393l8.887146 0z" fill-rule="evenodd"/><path fill="#000000" fill-opacity="0.0" d="m531.50397 279.04462l0 8.881897" fill-rule="evenodd"/><path stroke="#000000" stroke-width="1.0" stroke-linejoin="round" stroke-linecap="butt" d="m531.50397 279.04462l0 8.881897" fill-rule="evenodd"/><path fill="#000000" fill-opacity="0.0" d="m439.7979 338.1181l-9.007874 0" fill-rule="evenodd"/><path stroke="#000000" stroke-width="1.0" stroke-linejoin="round" stroke-linecap="butt" d="m439.7979 338.1181l-9.007874 0" fill-rule="evenodd"/><path fill="#000000" fill-opacity="0.0" d="m439.4987 331.5223l-8.850403 0" fill-rule="evenodd"/><path stroke="#000000" stroke-width="1.0" stroke-linejoin="round" stroke-linecap="butt" d="m439.4987 331.5223l-8.850403 0" fill-rule="evenodd"/><path fill="#000000" fill-opacity="0.0" d="m439.7979 323.72702l-9.007874 0" fill-rule="evenodd"/><path stroke="#000000" stroke-width="1.0" stroke-linejoin="round" stroke-linecap="butt" d="m439.7979 323.72702l-9.007874 0" fill-rule="evenodd"/><path fill="#000000" fill-opacity="0.0" d="m439.6483 316.8294l-9.13385 0" fill-rule="evenodd"/><path stroke="#000000" stroke-width="1.0" stroke-linejoin="round" stroke-linecap="butt" d="m439.6483 316.8294l-9.13385 0" fill-rule="evenodd"/><path fill="#000000" fill-opacity="0.0" d="m439.3491 309.48294l-8.692932 0" fill-rule="evenodd"/><path stroke="#000000" stroke-width="1.0" stroke-linejoin="round" stroke-linecap="butt" d="m439.3491 309.48294l-8.692932 0" fill-rule="evenodd"/><path fill="#000000" fill-opacity="0.0" d="m445.64566 333.92126l21.13388 0" fill-rule="evenodd"/><path stroke="#000000" stroke-width="1.0" stroke-linejoin="round" stroke-linecap="butt" d="m445.64566 333.92126l21.13388 0" fill-rule="evenodd"/><path fill="#000000" fill-opacity="0.0" d="m445.49606 328.22308l20.97638 0" fill-rule="evenodd"/><path stroke="#000000" stroke-width="1.0" stroke-linejoin="round" stroke-linecap="butt" d="m445.49606 328.22308l20.97638 0" fill-rule="evenodd"/><path fill="#000000" fill-opacity="0.0" d="m445.64566 314.58005l20.850403 0" fill-rule="evenodd"/><path stroke="#000000" stroke-width="1.0" stroke-linejoin="round" stroke-linecap="butt" d="m445.64566 314.58005l20.850403 0" fill-rule="evenodd"/><path fill="#000000" fill-opacity="0.0" d="m445.19684 303.33597l20.97638 0" fill-rule="evenodd"/><path stroke="#000000" stroke-width="1.0" stroke-linejoin="round" stroke-linecap="butt" d="m445.19684 303.33597l20.97638 0" fill-rule="evenodd"/><path fill="#000000" fill-opacity="0.0" d="m432.7533 287.29398l-2.7086792 0" fill-rule="evenodd"/><path stroke="#000000" stroke-width="1.0" stroke-linejoin="round" stroke-linecap="butt" d="m432.7533 287.29398l-2.7086792 0" fill-rule="evenodd"/><path fill="#000000" fill-opacity="0.0" d="m430.0525 287.29398l0 -3.1496277" fill-rule="evenodd"/><path stroke="#000000" stroke-width="1.0" stroke-linejoin="round" stroke-linecap="butt" d="m430.0525 287.29398l0 -3.1496277" fill-rule="evenodd"/><path fill="#000000" fill-opacity="0.0" d="m437.39896 283.99475l0 3.464569" fill-rule="evenodd"/><path stroke="#000000" stroke-width="1.0" stroke-linejoin="round" stroke-linecap="butt" d="m437.39896 283.99475l0 3.464569" fill-rule="evenodd"/><path fill="#000000" fill-opacity="0.0" d="m460.3386 283.99475l0 2.86615" fill-rule="evenodd"/><path stroke="#000000" stroke-width="1.0" stroke-linejoin="round" stroke-linecap="butt" d="m460.3386 283.99475l0 2.86615" fill-rule="evenodd"/><path fill="#000000" fill-opacity="0.0" d="m499.01837 295.54068l0 20.97638" fill-rule="evenodd"/><path stroke="#000000" stroke-width="1.0" stroke-linejoin="round" stroke-linecap="butt" d="m499.01837 295.54068l0 20.97638" fill-rule="evenodd"/><path fill="#000000" fill-opacity="0.0" d="m520.0079 317.1286l3.7480469 0" fill-rule="evenodd"/><path stroke="#000000" stroke-width="1.0" stroke-linejoin="round" stroke-linecap="butt" d="m520.0079 317.1286l3.7480469 0" fill-rule="evenodd"/><path fill="#000000" fill-opacity="0.0" d="m523.7559 317.1286l0 -21.29132" fill-rule="evenodd"/><path stroke="#000000" stroke-width="1.0" stroke-linejoin="round" stroke-linecap="butt" d="m523.7559 317.1286l0 -21.29132" fill-rule="evenodd"/><path fill="#000000" fill-opacity="0.0" d="m534.40155 306.18372l0 -10.48819" fill-rule="evenodd"/><path stroke="#000000" stroke-width="1.0" stroke-linejoin="round" stroke-linecap="butt" d="m534.40155 306.18372l0 -10.48819" fill-rule="evenodd"/><path fill="#000000" fill-opacity="0.0" d="m540.6982 323.87665l-19.779541 0" fill-rule="evenodd"/><path stroke="#000000" stroke-width="1.0" stroke-linejoin="round" stroke-linecap="butt" d="m540.6982 323.87665l-19.779541 0" fill-rule="evenodd"/><path fill="#000000" fill-opacity="0.0" d="m541.2992 340.9685l-20.5354 0" fill-rule="evenodd"/><path stroke="#000000" stroke-width="1.0" stroke-linejoin="round" stroke-linecap="butt" d="m541.2992 340.9685l-20.5354 0" fill-rule="evenodd"/><path fill="#000000" fill-opacity="0.0" d="m554.3412 367.2047l-6.7401123 0" fill-rule="evenodd"/><path stroke="#000000" stroke-width="1.0" stroke-linejoin="round" stroke-linecap="butt" d="m554.3412 367.2047l-6.7401123 0" fill-rule="evenodd"/><path fill="#000000" fill-opacity="0.0" d="m554.1916 360.75854l-6.7401733 0" fill-rule="evenodd"/><path stroke="#000000" stroke-width="1.0" stroke-linejoin="round" stroke-linecap="butt" d="m554.1916 360.75854l-6.7401733 0" fill-rule="evenodd"/><path fill="#000000" fill-opacity="0.0" d="m554.4908 354.61154l-7.0551147 0" fill-rule="evenodd"/><path stroke="#000000" stroke-width="1.0" stroke-linejoin="round" stroke-linecap="butt" d="m554.4908 354.61154l-7.0551147 0" fill-rule="evenodd"/><path fill="#000000" fill-opacity="0.0" d="m554.042 347.7139l-6.7401733 0" fill-rule="evenodd"/><path stroke="#000000" stroke-width="1.0" stroke-linejoin="round" stroke-linecap="butt" d="m554.042 347.7139l-6.7401733 0" fill-rule="evenodd"/><path fill="#000000" fill-opacity="0.0" d="m554.3412 341.86615l-7.0551147 0" fill-rule="evenodd"/><path stroke="#000000" stroke-width="1.0" stroke-linejoin="round" stroke-linecap="butt" d="m554.3412 341.86615l-7.0551147 0" fill-rule="evenodd"/><path fill="#000000" fill-opacity="0.0" d="m554.3412 335.27036l-7.4960327 0" fill-rule="evenodd"/><path stroke="#000000" stroke-width="1.0" stroke-linejoin="round" stroke-linecap="butt" d="m554.3412 335.27036l-7.4960327 0" fill-rule="evenodd"/><path fill="#000000" fill-opacity="0.0" d="m554.1916 328.97375l-6.5826416 0" fill-rule="evenodd"/><path stroke="#000000" stroke-width="1.0" stroke-linejoin="round" stroke-linecap="butt" d="m554.1916 328.97375l-6.5826416 0" fill-rule="evenodd"/><path fill="#000000" fill-opacity="0.0" d="m554.3412 322.67715l-7.4960327 0" fill-rule="evenodd"/><path stroke="#000000" stroke-width="1.0" stroke-linejoin="round" stroke-linecap="butt" d="m554.3412 322.67715l-7.4960327 0" fill-rule="evenodd"/><path fill="#000000" fill-opacity="0.0" d="m554.94226 317.27823l-7.338562 0" fill-rule="evenodd"/><path stroke="#000000" stroke-width="1.0" stroke-linejoin="round" stroke-linecap="butt" d="m554.94226 317.27823l-7.338562 0" fill-rule="evenodd"/><path fill="#000000" fill-opacity="0.0" d="m570.3832 316.979l0 -21.7323" fill-rule="evenodd"/><path stroke="#000000" stroke-width="1.0" stroke-linejoin="round" stroke-linecap="butt" d="m570.3832 316.979l0 -21.7323" fill-rule="evenodd"/><path fill="#000000" fill-opacity="0.0" d="m584.32544 303.63516l-4.3464355 0" fill-rule="evenodd"/><path stroke="#000000" stroke-width="1.0" stroke-linejoin="round" stroke-linecap="butt" d="m584.32544 303.63516l-4.3464355 0" fill-rule="evenodd"/><path fill="#000000" fill-opacity="0.0" d="m579.8294 294.93964l0 8.692902" fill-rule="evenodd"/><path stroke="#000000" stroke-width="1.0" stroke-linejoin="round" stroke-linecap="butt" d="m579.8294 294.93964l0 8.692902" fill-rule="evenodd"/><path fill="#000000" fill-opacity="0.0" d="m581.9265 289.3937l-1.9527588 0" fill-rule="evenodd"/><path stroke="#000000" stroke-width="1.0" stroke-linejoin="round" stroke-linecap="butt" d="m581.9265 289.3937l-1.9527588 0" fill-rule="evenodd"/><path fill="#000000" fill-opacity="0.0" d="m575.3307 288.64304l0 -7.653534" fill-rule="evenodd"/><path stroke="#000000" stroke-width="1.0" stroke-linejoin="round" stroke-linecap="butt" d="m575.3307 288.64304l0 -7.653534" fill-rule="evenodd"/><path fill="#000000" fill-opacity="0.0" d="m569.6352 288.49344l0 -7.496063" fill-rule="evenodd"/><path stroke="#000000" stroke-width="1.0" stroke-linejoin="round" stroke-linecap="butt" d="m569.6352 288.49344l0 -7.496063" fill-rule="evenodd"/><path fill="#000000" fill-opacity="0.0" d="m562.73755 288.49344l0 -7.3385925" fill-rule="evenodd"/><path stroke="#000000" stroke-width="1.0" stroke-linejoin="round" stroke-linecap="butt" d="m562.73755 288.49344l0 -7.3385925" fill-rule="evenodd"/><path fill="#000000" fill-opacity="0.0" d="m556.7402 288.64304l0 -7.653534" fill-rule="evenodd"/><path stroke="#000000" stroke-width="1.0" stroke-linejoin="round" stroke-linecap="butt" d="m556.7402 288.64304l0 -7.653534" fill-rule="evenodd"/><path fill="#000000" fill-opacity="0.0" d="m550.29395 288.64304l0 -8.251953" fill-rule="evenodd"/><path stroke="#000000" stroke-width="1.0" stroke-linejoin="round" stroke-linecap="butt" d="m550.29395 288.64304l0 -8.251953" fill-rule="evenodd"/><path fill="#000000" fill-opacity="0.0" d="m544.44617 288.94226l0 -10.330719" fill-rule="evenodd"/><path stroke="#000000" stroke-width="1.0" stroke-linejoin="round" stroke-linecap="butt" d="m544.44617 288.94226l0 -10.330719" fill-rule="evenodd"/><path fill="#000000" fill-opacity="0.0" d="m518.06036 288.49344l0 -8.251984" fill-rule="evenodd"/><path stroke="#000000" stroke-width="1.0" stroke-linejoin="round" stroke-linecap="butt" d="m518.06036 288.49344l0 -8.251984" fill-rule="evenodd"/><path fill="#000000" fill-opacity="0.0" d="m509.81366 288.34384l0 -7.779541" fill-rule="evenodd"/><path stroke="#000000" stroke-width="1.0" stroke-linejoin="round" stroke-linecap="butt" d="m509.81366 288.34384l0 -7.779541" fill-rule="evenodd"/><path fill="#000000" fill-opacity="0.0" d="m500.9685 288.34384l0 -8.094513" fill-rule="evenodd"/><path stroke="#000000" stroke-width="1.0" stroke-linejoin="round" stroke-linecap="butt" d="m500.9685 288.34384l0 -8.094513" fill-rule="evenodd"/><path fill="#000000" fill-opacity="0.0" d="m572.3333 380.84778l0 18.456696" fill-rule="evenodd"/><path stroke="#000000" stroke-width="1.0" stroke-linejoin="round" stroke-linecap="butt" d="m572.3333 380.84778l0 18.456696" fill-rule="evenodd"/><path fill="#000000" fill-opacity="0.0" d="m597.07086 380.54855l0 18.582672" fill-rule="evenodd"/><path stroke="#000000" stroke-width="1.0" stroke-linejoin="round" stroke-linecap="butt" d="m597.07086 380.54855l0 18.582672" fill-rule="evenodd"/><path fill="#000000" fill-opacity="0.0" d="m622.4068 380.39633l-7.338562 0" fill-rule="evenodd"/><path stroke="#000000" stroke-width="1.0" stroke-linejoin="round" stroke-linecap="butt" d="m622.4068 380.39633l-7.338562 0" fill-rule="evenodd"/><path fill="#000000" fill-opacity="0.0" d="m622.55646 373.6509l-7.1811523 0" fill-rule="evenodd"/><path stroke="#000000" stroke-width="1.0" stroke-linejoin="round" stroke-linecap="butt" d="m622.55646 373.6509l-7.1811523 0" fill-rule="evenodd"/><path fill="#000000" fill-opacity="0.0" d="m622.7087 367.2047l-7.338623 0" fill-rule="evenodd"/><path stroke="#000000" stroke-width="1.0" stroke-linejoin="round" stroke-linecap="butt" d="m622.7087 367.2047l-7.338623 0" fill-rule="evenodd"/><path fill="#000000" fill-opacity="0.0" d="m622.2572 360.75854l-6.7401123 0" fill-rule="evenodd"/><path stroke="#000000" stroke-width="1.0" stroke-linejoin="round" stroke-linecap="butt" d="m622.2572 360.75854l-6.7401123 0" fill-rule="evenodd"/><path fill="#000000" fill-opacity="0.0" d="m504.71652 418.4777l0 -12.157471" fill-rule="evenodd"/><path stroke="#000000" stroke-width="1.0" stroke-linejoin="round" stroke-linecap="butt" d="m504.71652 418.4777l0 -12.157471" fill-rule="evenodd"/><path fill="#000000" fill-opacity="0.0" d="m484.9265 418.17847l0 -11.24408" fill-rule="evenodd"/><path stroke="#000000" stroke-width="1.0" stroke-linejoin="round" stroke-linecap="butt" d="m484.9265 418.17847l0 -11.24408" fill-rule="evenodd"/><path fill="#000000" fill-opacity="0.0" d="m467.98425 418.17847l0 -11.40155" fill-rule="evenodd"/><path stroke="#000000" stroke-width="1.0" stroke-linejoin="round" stroke-linecap="butt" d="m467.98425 418.17847l0 -11.40155" fill-rule="evenodd"/><path fill="#000000" fill-opacity="0.0" d="m528.55383 415.33072l0 3.5905457" fill-rule="evenodd"/><path stroke="#000000" stroke-width="1.0" stroke-linejoin="round" stroke-linecap="butt" d="m528.55383 415.33072l0 3.5905457" fill-rule="evenodd"/><path fill="#000000" fill-opacity="0.0" d="m528.7034 418.77954l-17.984283 0" fill-rule="evenodd"/><path stroke="#000000" stroke-width="1.0" stroke-linejoin="round" stroke-linecap="butt" d="m528.7034 418.77954l-17.984283 0" fill-rule="evenodd"/><path fill="#000000" fill-opacity="0.0" d="m439.6483 441.41733l0 -35.24411" fill-rule="evenodd"/><path stroke="#000000" stroke-width="1.0" stroke-linejoin="round" stroke-linecap="butt" d="m439.6483 441.41733l0 -35.24411" fill-rule="evenodd"/><path fill="#000000" fill-opacity="0.0" d="m420.90814 426.12335l0 -21.13385" fill-rule="evenodd"/><path stroke="#000000" stroke-width="1.0" stroke-linejoin="round" stroke-linecap="butt" d="m420.90814 426.12335l0 -21.13385" fill-rule="evenodd"/><path fill="#000000" fill-opacity="0.0" d="m428.7034 404.98425l0 23.527557" fill-rule="evenodd"/><path stroke="#000000" stroke-width="1.0" stroke-linejoin="round" stroke-linecap="butt" d="m428.7034 404.98425l0 23.527557" fill-rule="evenodd"/><path fill="#000000" fill-opacity="0.0" d="m440.09973 428.67453l-17.700775 0" fill-rule="evenodd"/><path stroke="#000000" stroke-width="1.0" stroke-linejoin="round" stroke-linecap="butt" d="m440.09973 428.67453l-17.700775 0" fill-rule="evenodd"/><path fill="#000000" fill-opacity="0.0" d="m412.063 435.86877l0 9.007874" fill-rule="evenodd"/><path stroke="#000000" stroke-width="1.0" stroke-linejoin="round" stroke-linecap="butt" d="m412.063 435.86877l0 9.007874" fill-rule="evenodd"/><path fill="#000000" fill-opacity="0.0" d="m421.65878 436.021l0 7.3385925" fill-rule="evenodd"/><path stroke="#000000" stroke-width="1.0" stroke-linejoin="round" stroke-linecap="butt" d="m421.65878 436.021l0 7.3385925" fill-rule="evenodd"/><path fill="#000000" fill-opacity="0.0" d="m400.9685 428.82416l-4.6614075 0" fill-rule="evenodd"/><path stroke="#000000" stroke-width="1.0" stroke-linejoin="round" stroke-linecap="butt" d="m400.9685 428.82416l-4.6614075 0" fill-rule="evenodd"/><path fill="#000000" fill-opacity="0.0" d="m397.22046 411.13123l-10.362183 0" fill-rule="evenodd"/><path stroke="#000000" stroke-width="1.0" stroke-linejoin="round" stroke-linecap="butt" d="m397.22046 411.13123l-10.362183 0" fill-rule="evenodd"/><path fill="#000000" fill-opacity="0.0" d="m392.72177 405.13385l0 5.984253" fill-rule="evenodd"/><path stroke="#000000" stroke-width="1.0" stroke-linejoin="round" stroke-linecap="butt" d="m392.72177 405.13385l0 5.984253" fill-rule="evenodd"/><path fill="#000000" fill-opacity="0.0" d="m412.81104 398.38846l0 -17.700806" fill-rule="evenodd"/><path stroke="#000000" stroke-width="1.0" stroke-linejoin="round" stroke-linecap="butt" d="m412.81104 398.38846l0 -17.700806" fill-rule="evenodd"/><path fill="#000000" fill-opacity="0.0" d="m440.39896 398.23883l0 -18.299194" fill-rule="evenodd"/><path stroke="#000000" stroke-width="1.0" stroke-linejoin="round" stroke-linecap="butt" d="m440.39896 398.23883l0 -18.299194" fill-rule="evenodd"/><path fill="#000000" fill-opacity="0.0" d="m475.48032 399.1391l0 -18.425201" fill-rule="evenodd"/><path stroke="#000000" stroke-width="1.0" stroke-linejoin="round" stroke-linecap="butt" d="m475.48032 399.1391l0 -18.425201" fill-rule="evenodd"/><path fill="#000000" fill-opacity="0.0" d="m517.60895 399.28873l0 -4.661438" fill-rule="evenodd"/><path stroke="#000000" stroke-width="1.0" stroke-linejoin="round" stroke-linecap="butt" d="m517.60895 399.28873l0 -4.661438" fill-rule="evenodd"/><path fill="#000000" fill-opacity="0.0" d="m517.60895 394.79004l23.527527 0" fill-rule="evenodd"/><path stroke="#000000" stroke-width="1.0" stroke-linejoin="round" stroke-linecap="butt" d="m517.60895 394.79004l23.527527 0" fill-rule="evenodd"/><path fill="#000000" fill-opacity="0.0" d="m536.19946 399.43832l0 -4.6614075" fill-rule="evenodd"/><path stroke="#000000" stroke-width="1.0" stroke-linejoin="round" stroke-linecap="butt" d="m536.19946 399.43832l0 -4.6614075" fill-rule="evenodd"/></g></svg>