<svg version="1.1" viewBox="0.0 0.0 960.0 720.0" fill="none" stroke="none" stroke-linecap="square" stroke-miterlimit="10" xmlns:xlink="http://www.w3.org/1999/xlink" xmlns="http://www.w3.org/2000/svg"><clipPath id="p.0"><path d="m0 0l960.0 0l0 720.0l-960.0 0l0 -720.0z" clip-rule="nonzero"/></clipPath><g clip-path="url(#p.0)"><path fill="#000000" fill-opacity="0.0" d="m0 0l960.0 0l0 720.0l-960.0 0z" fill-rule="evenodd"/><path fill="#cfe2f3" d="m498.51312 360.65747l0 22.624695l-36.824158 0l0 -34.417328l25.992126 0l0 9.748016l-21.05774 0l0 21.661438l27.91864 0l0 -19.616821z" fill-rule="evenodd"/><path stroke="#000000" stroke-width="1.0" stroke-linejoin="round" stroke-linecap="butt" d="m498.51312 360.65747l0 22.624695l-36.824158 0l0 -34.417328l25.992126 0l0 9.748016l-21.05774 0l0 21.661438l27.91864 0l0 -19.616821z" fill-rule="evenodd"/><path fill="#fce5cd" d="m506.16403 391.34778l-52.653534 0l0 -42.695557l8.0 0l0 34.939636l37.304474 0l0 -23.265076l7.8372498 0z" fill-rule="evenodd"/><path stroke="#000000" stroke-width="1.0" stroke-linejoin="round" stroke-linecap="butt" d="m506.16403 391.34778l-52.653534 0l0 -42.695557l8.0 0l0 34.939636l37.304474 0l0 -23.265076l7.8372498 0z" fill-rule="evenodd"/><path fill="#000000" fill-opacity="0.0" d="m453.91733 359.91733l7.3385925 0" fill-rule="evenodd"/><path stroke="#000000" stroke-width="1.0" stroke-linejoin="round" stroke-linecap="butt" d="m453.91733 359.91733l7.3385925 0" fill-rule="evenodd"/><path fill="#000000" fill-opacity="0.0" d="m453.9987 368.16403l7.3385925 0" fill-rule="evenodd"/><path stroke="#000000" stroke-width="1.0" stroke-linejoin="round" stroke-linecap="butt" d="m453.9987 368.16403l7.3385925 0" fill-rule="evenodd"/><path fill="#000000" fill-opacity="0.0" d="m453.9987 376.2454l7.2756042 0" fill-rule="evenodd"/><path stroke="#000000" stroke-width="1.0" stroke-linejoin="round" stroke-linecap="butt" d="m453.9987 376.2454l7.2756042 0" fill-rule="evenodd"/><path fill="#000000" fill-opacity="0.0" d="m461.67322 383.34778l-8.157471 0" fill-rule="evenodd"/><path stroke="#000000" stroke-width="1.0" stroke-linejoin="round" stroke-linecap="butt" d="m461.67322 383.34778l-8.157471 0" fill-rule="evenodd"/><path fill="#000000" fill-opacity="0.0" d="m466.16403 383.5105l0 7.496063" fill-rule="evenodd"/><path stroke="#000000" stroke-width="1.0" stroke-linejoin="round" stroke-linecap="butt" d="m466.16403 383.5105l0 7.496063" fill-rule="evenodd"/><path fill="#000000" fill-opacity="0.0" d="m473.67322 383.59186l0 7.3385925" fill-rule="evenodd"/><path stroke="#000000" stroke-width="1.0" stroke-linejoin="round" stroke-linecap="butt" d="m473.67322 383.59186l0 7.3385925" fill-rule="evenodd"/><path fill="#000000" fill-opacity="0.0" d="m486.98032 383.59186l0 7.3385925" fill-rule="evenodd"/><path stroke="#000000" stroke-width="1.0" stroke-linejoin="round" stroke-linecap="butt" d="m486.98032 383.59186l0 7.3385925" fill-rule="evenodd"/><path fill="#000000" fill-opacity="0.0" d="m493.83597 383.5105l0 7.685028" fill-rule="evenodd"/><path stroke="#000000" stroke-width="1.0" stroke-linejoin="round" stroke-linecap="butt" d="m493.83597 383.5105l0 7.685028" fill-rule="evenodd"/><path fill="#000000" fill-opacity="0.0" d="m498.81497 383.1824l7.1810913 0" fill-rule="evenodd"/><path stroke="#000000" stroke-width="1.0" stroke-linejoin="round" stroke-linecap="butt" d="m498.81497 383.1824l7.1810913 0" fill-rule="evenodd"/><path fill="#000000" fill-opacity="0.0" d="m499.06168 374.4475l7.2756042 0" fill-rule="evenodd"/><path stroke="#000000" stroke-width="1.0" stroke-linejoin="round" stroke-linecap="butt" d="m499.06168 374.4475l7.2756042 0" fill-rule="evenodd"/><path fill="#000000" fill-opacity="0.0" d="m499.14304 366.4475l7.3385925 0" fill-rule="evenodd"/><path stroke="#000000" stroke-width="1.0" stroke-linejoin="round" stroke-linecap="butt" d="m499.14304 366.4475l7.3385925 0" fill-rule="evenodd"/><path fill="#fce5cd" d="m466.81497 358.61285l27.59317 0l0 21.060364l-27.427826 0z" fill-rule="evenodd"/><path stroke="#000000" stroke-width="1.0" stroke-linejoin="round" stroke-linecap="butt" d="m466.81497 358.61285l27.59317 0l0 21.060364l-27.427826 0z" fill-rule="evenodd"/><path fill="#000000" fill-opacity="0.0" d="m467.3058 367.34778l26.86612 0" fill-rule="evenodd"/><path stroke="#000000" stroke-width="1.0" stroke-linejoin="round" stroke-linecap="butt" d="m467.3058 367.34778l26.86612 0" fill-rule="evenodd"/><path fill="#000000" fill-opacity="0.0" d="m488.61285 358.93832l0 16.094482" fill-rule="evenodd"/><path stroke="#000000" stroke-width="1.0" stroke-linejoin="round" stroke-linecap="butt" d="m488.61285 358.93832l0 16.094482" fill-rule="evenodd"/><path fill="#000000" fill-opacity="0.0" d="m494.57086 375.10104l-27.496063 0" fill-rule="evenodd"/><path stroke="#000000" stroke-width="1.0" stroke-linejoin="round" stroke-linecap="butt" d="m494.57086 375.10104l-27.496063 0" fill-rule="evenodd"/><path fill="#fce5cd" d="m453.34778 348.57086l0 -19.83728l52.48819 0l0 19.346466l0 12.083984l-11.346466 0l0 -1.879242l-6.448822 0l0 -9.958008z" fill-rule="evenodd"/><path stroke="#000000" stroke-width="1.0" stroke-linejoin="round" stroke-linecap="butt" d="m453.34778 348.57086l0 -19.83728l52.48819 0l0 19.346466l0 12.083984l-11.346466 0l0 -1.879242l-6.448822 0l0 -9.958008z" fill-rule="evenodd"/><path fill="#000000" fill-opacity="0.0" d="m480.12204 328.65222l0 19.275604" fill-rule="evenodd"/><path stroke="#000000" stroke-width="1.0" stroke-linejoin="round" stroke-linecap="butt" d="m480.12204 328.65222l0 19.275604" fill-rule="evenodd"/><path fill="#000000" fill-opacity="0.0" d="m487.7966 348.32678l17.952728 0" fill-rule="evenodd"/><path stroke="#000000" stroke-width="1.0" stroke-linejoin="round" stroke-linecap="butt" d="m487.7966 348.32678l17.952728 0" fill-rule="evenodd"/></g></svg>